<svg width="26" height="26" viewBox="0 0 26 26" fill="none" xmlns="http://www.w3.org/2000/svg">
<g clip-path="url(#clip0_900_542)">
<path d="M17.5824 5.86006C18.3722 5.86006 19.0124 5.21981 19.0124 4.43003C19.0124 3.64025 18.3722 3 17.5824 3C16.7926 3 16.1523 3.64025 16.1523 4.43003C16.1523 5.21981 16.7926 5.86006 17.5824 5.86006Z" fill="#DADCE0"/>
<path d="M18.602 5.4313L16.5796 3.40894L9.0246 10.9639L11.047 12.9863L18.602 5.4313Z" fill="#DADCE0"/>
<path d="M17.5824 23C18.3722 23 19.0124 22.3597 19.0124 21.5699C19.0124 20.7801 18.3722 20.1399 17.5824 20.1399C16.7926 20.1399 16.1523 20.7801 16.1523 21.5699C16.1523 22.3597 16.7926 23 17.5824 23Z" fill="#DADCE0"/>
<path d="M16.5885 22.5768L18.6108 20.5544L11.0558 12.9995L9.03348 15.0218L16.5885 22.5768Z" fill="#DADCE0"/>
<path d="M11.0497 12.9853L9.02734 10.9629L7.00498 12.9853L9.02734 15.0076L11.0497 12.9853Z" fill="#DADCE0"/>
</g>
<defs>
<clipPath id="clip0_900_542">
<rect width="12.0123" height="20" fill="white" transform="translate(7 3)"/>
</clipPath>
</defs>
</svg>
