<svg width="28" height="30" viewBox="0 0 28 30" fill="none" xmlns="http://www.w3.org/2000/svg">
<g clip-path="url(#clip0_1008_2084)">
<path d="M24.9554 12.8041V27.0224H2.90179V13.0088H24.9554M27.8571 12.5994H0V30.0001H27.8571V12.5994Z" fill="#596168"/>
<path d="M24.9554 6.27161V10.0309H2.90179V6.27161H24.9554ZM25.6264 3.29395H2.23075C0.997489 3.29395 0 4.33613 0 5.60164V13.0272H27.8571V5.60164C27.8571 4.33613 26.8597 3.31256 25.6264 3.31256V3.29395Z" fill="#4165FF"/>
<path d="M8.77776 1.54468H5.87598V5.75063H8.77776V1.54468Z" fill="#4165FF"/>
<path d="M21.9628 1.54468H19.061V5.71341H21.9628V1.54468Z" fill="#4165FF"/>
<path d="M7.32687 0C6.52888 0 5.87598 0.669975 5.87598 1.48883C5.87598 2.30769 6.52888 2.97767 7.32687 2.97767C8.12486 2.97767 8.77776 2.30769 8.77776 1.48883C8.77776 0.669975 8.12486 0 7.32687 0Z" fill="#4165FF"/>
<path d="M20.5119 0C19.7139 0 19.061 0.669975 19.061 1.48883C19.061 2.30769 19.7139 2.97767 20.5119 2.97767C21.3099 2.97767 21.9628 2.30769 21.9628 1.48883C21.9628 0.669975 21.3281 0 20.5119 0Z" fill="#4165FF"/>
<path d="M8.77769 21.7183H5.64014V24.9379H8.77769V21.7183Z" fill="#4165FF"/>
<path d="M22.2347 21.7183H19.0972V24.9379H22.2347V21.7183Z" fill="#4165FF"/>
<path d="M15.4881 21.7183H12.3506V24.9379H15.4881V21.7183Z" fill="#4165FF"/>
<path d="M8.77769 15.2791H5.64014V18.4987H8.77769V15.2791Z" fill="#4165FF"/>
<path d="M22.2347 15.2791H19.0972V18.4987H22.2347V15.2791Z" fill="#4165FF"/>
<path d="M15.4881 15.2791H12.3506V18.4987H15.4881V15.2791Z" fill="#4165FF"/>
</g>
<defs>
<clipPath id="clip0_1008_2084">
<rect width="27.8571" height="30" fill="white"/>
</clipPath>
</defs>
</svg>
