<svg width="26" height="26" viewBox="0 0 26 26" fill="none" xmlns="http://www.w3.org/2000/svg">
<path d="M13 26C20.1797 26 26 20.1797 26 13C26 5.8203 20.1797 0 13 0C5.8203 0 0 5.8203 0 13C0 20.1797 5.8203 26 13 26Z" fill="#4165FF"/>
<path d="M21.5999 8.05991C21.5999 7.27991 20.9799 6.65991 20.1999 6.65991C19.4199 6.65991 19.4599 6.81991 19.2199 7.05991L10.9799 15.2999L6.79992 11.1199C6.53992 10.8599 6.19992 10.7199 5.81992 10.7199C5.03992 10.7199 4.41992 11.3399 4.41992 12.1199C4.41992 12.8999 4.57992 12.8599 4.81992 13.0999L8.99992 17.2799L10.9799 19.2599L21.1999 9.03991C21.4599 8.77991 21.5999 8.43991 21.5999 8.05991V8.05991Z" fill="white"/>
</svg>
