<svg width="26" height="26" viewBox="0 0 26 26" fill="none" xmlns="http://www.w3.org/2000/svg">
<path d="M13 26C20.1797 26 26 20.1797 26 13C26 5.8203 20.1797 0 13 0C5.8203 0 0 5.8203 0 13C0 20.1797 5.8203 26 13 26Z" fill="#6DC69B"/>
<path d="M21.64 8.02012C21.64 7.24012 21.02 6.62012 20.24 6.62012C19.46 6.62012 19.5 6.78012 19.26 7.02012L11.02 15.2601L6.83996 11.0801C6.57996 10.8201 6.23996 10.6801 5.85996 10.6801C5.07996 10.6801 4.45996 11.3001 4.45996 12.0801C4.45996 12.8601 4.61996 12.8201 4.85996 13.0601L9.03996 17.2401L11.02 19.2201L13 17.2401L21.24 9.00012C21.5 8.74012 21.64 8.40012 21.64 8.02012V8.02012Z" fill="white"/>
</svg>
