<svg width="40" height="40" viewBox="0 0 40 40" fill="none" xmlns="http://www.w3.org/2000/svg">
<g clip-path="url(#clip0_1010_2310)">
<path d="M38.2656 8.92699L30.589 6.03679C30.5338 5.99997 30.4602 5.99997 30.405 5.99997C28.38 5.99997 26.9441 5.99997 24.9927 5.99997C24.735 5.99997 24.5325 6.18406 24.4957 6.44179C24.238 8.20904 22.7284 9.5529 20.9612 9.58972C19.1755 9.5529 17.6844 8.19064 17.4266 6.44179C17.1689 4.69294 17.1689 5.99997 16.9112 5.99997C14.9414 5.99997 13.524 5.99997 11.499 5.99997C9.47398 5.99997 11.3701 5.99997 11.3149 6.03679L3.63835 8.92699C3.36222 9.03745 3.23335 9.33199 3.36222 9.60812L6.47333 16.5667C6.58378 16.806 6.85992 16.9349 7.11764 16.8244L9.93421 15.7383C10.2656 15.6094 10.6337 15.8672 10.6153 16.2353L9.9158 33.4845C9.9158 33.7607 10.1367 34 10.4128 34H31.4727C31.7488 34 31.9881 33.7607 31.9697 33.4845L31.2702 16.2353C31.2702 15.8672 31.6199 15.6094 31.9513 15.7383L34.7679 16.8244C35.0256 16.9165 35.3017 16.806 35.4122 16.5667L38.5233 9.58972C38.6337 9.33199 38.5233 9.01904 38.2472 8.90858L38.2656 8.92699Z" fill="#517EFF"/>
<path d="M10.6156 16.2354L11.4072 6L5.97656 15.4622L6.6761 17.0085L10.6156 16.2354Z" fill="url(#paint0_linear_1010_2310)"/>
<path d="M31.2887 16.2354L30.4971 6L35.9277 15.4622L35.2282 17.0085L31.2887 16.2354Z" fill="url(#paint1_linear_1010_2310)"/>
<path d="M18.918 6H23.2073C23.0784 7.08613 22.1579 7.91453 21.0902 7.91453C19.9857 7.93294 19.0468 7.08613 18.918 6Z" fill="#3256F0"/>
<path d="M31.8595 30.3551H10.0449L10.1186 28.5142H31.7859L31.8595 30.3551Z" fill="url(#paint2_linear_1010_2310)"/>
</g>
<defs>
<linearGradient id="paint0_linear_1010_2310" x1="7.11792" y1="7.93294" x2="11.039" y2="15.2413" gradientUnits="userSpaceOnUse">
<stop stop-color="#517EFF"/>
<stop offset="1" stop-color="#3256F0"/>
</linearGradient>
<linearGradient id="paint1_linear_1010_2310" x1="34.7864" y1="7.93294" x2="30.8652" y2="15.2413" gradientUnits="userSpaceOnUse">
<stop stop-color="#517EFF"/>
<stop offset="1" stop-color="#3256F0"/>
</linearGradient>
<linearGradient id="paint2_linear_1010_2310" x1="10.2658" y1="29.5267" x2="31.7122" y2="29.3426" gradientUnits="userSpaceOnUse">
<stop stop-color="white" stop-opacity="0.6"/>
<stop offset="0.1" stop-color="white" stop-opacity="0.7"/>
<stop offset="0.2" stop-color="white" stop-opacity="0.8"/>
<stop offset="0.3" stop-color="white" stop-opacity="0.9"/>
<stop offset="0.4" stop-color="white"/>
<stop offset="0.5" stop-color="white"/>
<stop offset="1" stop-color="white" stop-opacity="0.5"/>
</linearGradient>
<clipPath id="clip0_1010_2310">
<rect width="36.5786" height="28" fill="white" transform="translate(2 6)"/>
</clipPath>
</defs>
</svg>
