<svg width="40" height="40" viewBox="0 0 40 40" fill="none" xmlns="http://www.w3.org/2000/svg">
<g clip-path="url(#clip0_1010_2316)">
<path d="M36.1362 32.3799L35.7681 30.0604L30.2822 30.3365L30.1901 28.7533L35.5103 28.4588L32.3256 8.92691C32.3256 8.92691 32.3256 8.92692 32.3256 8.94532C32.3256 8.94532 32.3256 8.92692 32.3256 8.90851C32.3256 8.8901 32.3256 8.85328 32.3072 8.83487C32.3072 8.79805 32.2888 8.77964 32.2704 8.74283C32.2704 8.70601 32.2519 8.66919 32.2335 8.63237C32.2335 8.59555 32.2151 8.57715 32.1967 8.54033C32.1967 8.50351 32.1599 8.46669 32.1599 8.42987C32.1599 8.39306 32.1415 8.37465 32.1231 8.33783C32.1231 8.30101 32.0863 8.26419 32.0679 8.22738C32.0679 8.20897 32.0494 8.17215 32.031 8.15374C32.031 8.11692 31.9942 8.0801 31.9758 8.06169C31.9758 8.04329 31.939 8.00647 31.939 7.98806C31.9206 7.95124 31.9022 7.91442 31.8838 7.89601C31.8838 7.87761 31.847 7.84079 31.8285 7.82238C31.8101 7.78556 31.7733 7.74874 31.7549 7.73033C31.7549 7.71192 31.7181 7.69352 31.6997 7.6567C31.6813 7.61988 31.6445 7.58306 31.6076 7.54624C31.6076 7.54624 31.5708 7.50943 31.5708 7.49102C31.534 7.43579 31.4788 7.38056 31.442 7.34375C31.4051 7.28852 31.3499 7.2517 31.3131 7.19647C31.3131 7.19647 31.2763 7.15966 31.2579 7.14125C31.221 7.10443 31.2026 7.08602 31.1658 7.0492C31.1474 7.0492 31.129 7.01239 31.1106 6.99398C31.0738 6.97557 31.0554 6.93875 31.0185 6.92034C31.0001 6.92034 30.9817 6.88352 30.9449 6.86511C30.9081 6.8467 30.8897 6.80989 30.8529 6.79148C30.8345 6.79148 30.7976 6.75466 30.7792 6.73625C30.7424 6.71784 30.724 6.69943 30.6872 6.66262C30.6688 6.66262 30.632 6.6258 30.6136 6.60739C30.5767 6.58898 30.5583 6.57057 30.5215 6.55216C30.5031 6.55216 30.4663 6.51534 30.4479 6.49693C30.4111 6.47853 30.3742 6.46012 30.3558 6.44171C30.3374 6.44171 30.3006 6.40489 30.2638 6.40489C30.227 6.40489 30.1901 6.36807 30.1717 6.34966C30.1349 6.34966 30.1165 6.33125 30.0797 6.31285C30.0429 6.31285 30.0061 6.27603 29.9692 6.27603C29.9324 6.27603 29.914 6.25762 29.8772 6.23921C29.8404 6.23921 29.8036 6.2208 29.7667 6.20239C29.7299 6.20239 29.7115 6.18398 29.6747 6.16557C29.6379 6.16557 29.6011 6.14717 29.5642 6.12876C29.5274 6.12876 29.509 6.12876 29.4722 6.11035C29.4354 6.11035 29.3986 6.09194 29.3617 6.07353C29.3249 6.07353 29.3065 6.07353 29.2697 6.05512C29.2329 6.05512 29.1961 6.05512 29.1592 6.03671C29.1224 6.03671 29.104 6.03671 29.0672 6.03671C29.0304 6.03671 28.9752 6.03671 28.9383 6.03671C28.9015 6.03671 28.8831 6.03671 28.8463 6.03671C28.7911 6.03671 28.7542 6.03671 28.699 6.03671C28.6806 6.03671 28.6438 6.03671 28.6254 6.03671C28.5517 6.03671 28.4781 6.03671 28.4045 6.03671H28.1099H23.25C23.25 8.06169 21.5932 9.7185 19.5682 9.7185C17.5432 9.7185 19.5682 9.7185 19.5682 9.7185C17.5432 9.7185 15.8864 8.06169 15.8864 6.03671C15.8864 4.01173 15.8864 6.03671 15.8864 6.03671H11.0264H10.7319C10.6583 6.03671 10.5846 6.03671 10.511 6.03671C10.4926 6.03671 10.4558 6.03671 10.4374 6.03671C10.3821 6.03671 10.3453 6.03671 10.2901 6.03671C10.2533 6.03671 10.2349 6.03671 10.198 6.03671C10.1612 6.03671 10.106 6.03671 10.0692 6.03671C10.0324 6.03671 10.014 6.03671 9.97713 6.03671C9.94032 6.03671 9.9035 6.03671 9.86668 6.05512C9.82986 6.05512 9.81145 6.05512 9.77463 6.07353C9.73782 6.07353 9.701 6.07353 9.66418 6.11035C9.62736 6.11035 9.60895 6.11035 9.57214 6.12876C9.53532 6.12876 9.4985 6.14717 9.46168 6.16557C9.42487 6.16557 9.40646 6.18398 9.36964 6.20239C9.33282 6.20239 9.296 6.2208 9.25918 6.23921C9.22237 6.23921 9.20396 6.25762 9.16714 6.27603C9.13032 6.27603 9.0935 6.31285 9.05669 6.31285C9.01987 6.31285 9.00146 6.33125 8.96464 6.34966C8.92782 6.34966 8.89101 6.38648 8.8726 6.40489C8.83578 6.40489 8.81737 6.44171 8.78055 6.44171C8.74373 6.44171 8.70692 6.47853 8.68851 6.49693C8.6701 6.49693 8.63328 6.53375 8.61487 6.55216C8.57805 6.57057 8.55964 6.58898 8.52283 6.60739C8.50442 6.60739 8.4676 6.64421 8.44919 6.66262C8.41237 6.68102 8.39396 6.69943 8.35715 6.73625C8.33874 6.73625 8.30192 6.77307 8.28351 6.79148C8.24669 6.80989 8.22828 6.8467 8.19147 6.86511C8.17306 6.86511 8.15465 6.90193 8.11783 6.92034C8.08101 6.93875 8.0626 6.97557 8.02579 6.99398C8.00738 6.99398 7.98897 7.03079 7.97056 7.0492C7.93374 7.08602 7.89692 7.10443 7.87851 7.14125C7.87851 7.14125 7.8417 7.17807 7.82329 7.19647C7.78647 7.23329 7.73124 7.28852 7.69442 7.34375C7.65761 7.39897 7.60238 7.4542 7.56556 7.49102C7.56556 7.49102 7.52874 7.52784 7.52874 7.54624C7.49193 7.58306 7.47352 7.61988 7.4367 7.6567C7.4367 7.67511 7.39988 7.69352 7.38147 7.73033C7.36306 7.76715 7.32625 7.80397 7.30784 7.82238C7.30784 7.84079 7.27102 7.87761 7.25261 7.89601C7.2342 7.93283 7.21579 7.96965 7.19738 7.98806C7.19738 8.00647 7.16057 8.04329 7.16057 8.06169C7.14216 8.09851 7.12375 8.13533 7.10534 8.15374C7.10534 8.17215 7.06852 8.20897 7.06852 8.22738C7.06852 8.26419 7.0317 8.30101 7.01329 8.33783C7.01329 8.37465 6.99489 8.39306 6.97648 8.42987C6.97648 8.46669 6.93966 8.50351 6.93966 8.54033C6.93966 8.57715 6.92125 8.59555 6.90284 8.63237C6.90284 8.66919 6.88443 8.70601 6.86602 8.74283C6.86602 8.77964 6.84761 8.79805 6.8292 8.83487C6.8292 8.85328 6.8292 8.8901 6.8108 8.90851C6.8108 8.90851 6.8108 8.92692 6.8108 8.94532C6.8108 8.94532 6.8108 8.92692 6.8108 8.90851L3.64446 28.4588L8.96464 28.7533L8.8726 30.3365L3.38673 30.0604L3.01855 32.3799L8.76214 32.6929L9.40646 21.3161L8.72533 33.9999H30.4663L29.7851 21.3161L30.4295 32.6929L36.173 32.3799H36.1362Z" fill="#517EFF"/>
<path d="M17.4141 6H21.7033C21.5745 7.08613 20.654 7.91453 19.5863 7.91453C18.5002 7.91453 17.5429 7.08613 17.4141 6Z" fill="#3256F0"/>
<path d="M9.9402 11.4675L4.73047 32.4721L8.74362 32.693L9.9402 11.4675Z" fill="url(#paint0_linear_1010_2316)"/>
<path d="M29.1777 11.4675L34.4059 32.4721L30.3927 32.693L29.1777 11.4675Z" fill="url(#paint1_linear_1010_2316)"/>
<path d="M3.6443 28.459L3.36816 30.0606L8.85403 30.3367L8.94607 28.7535L3.6443 28.459Z" fill="url(#paint2_linear_1010_2316)"/>
<path d="M35.4916 28.459L30.1714 28.7535L30.2634 30.3367L35.7493 30.0606L35.4916 28.459Z" fill="url(#paint3_linear_1010_2316)"/>
</g>
<defs>
<linearGradient id="paint0_linear_1010_2316" x1="6.73704" y1="21.8686" x2="9.44316" y2="22.3104" gradientUnits="userSpaceOnUse">
<stop stop-color="#517EFF"/>
<stop offset="1" stop-color="#3256F0"/>
</linearGradient>
<linearGradient id="paint1_linear_1010_2316" x1="32.3993" y1="21.8686" x2="29.6932" y2="22.3104" gradientUnits="userSpaceOnUse">
<stop stop-color="#517EFF"/>
<stop offset="1" stop-color="#3256F0"/>
</linearGradient>
<linearGradient id="paint2_linear_1010_2316" x1="12.4622" y1="29.6556" x2="3.58907" y2="29.2874" gradientUnits="userSpaceOnUse">
<stop stop-color="#6089FF"/>
<stop offset="0.3" stop-color="#98B2FF"/>
<stop offset="0.5" stop-color="#C4D3FF"/>
<stop offset="0.7" stop-color="#E4EBFF"/>
<stop offset="0.9" stop-color="#F8F9FF"/>
<stop offset="1" stop-color="white"/>
</linearGradient>
<linearGradient id="paint3_linear_1010_2316" x1="28.2753" y1="29.6372" x2="34.1661" y2="29.3242" gradientUnits="userSpaceOnUse">
<stop stop-color="#618AFF"/>
<stop offset="0.2" stop-color="#91ADFF"/>
<stop offset="0.4" stop-color="#B8CAFF"/>
<stop offset="0.5" stop-color="#D7E1FF"/>
<stop offset="0.7" stop-color="#EDF1FF"/>
<stop offset="0.9" stop-color="#FAFBFF"/>
<stop offset="1" stop-color="white"/>
</linearGradient>
<clipPath id="clip0_1010_2316">
<rect width="33.1361" height="28" fill="white" transform="translate(3 6)"/>
</clipPath>
</defs>
</svg>
