<svg width="40" height="40" viewBox="0 0 40 40" fill="none" xmlns="http://www.w3.org/2000/svg">
<g clip-path="url(#clip0_1024_2066)">
<path d="M6 11.6551V30.0658C6 30.3072 6.19749 30.5047 6.43887 30.5047H17.6082C17.8276 30.5047 18.0031 30.351 18.047 30.1316L19.3417 20.7178C19.3636 20.4984 19.5611 20.3448 19.7806 20.3448H20.0219H20.2633C20.4828 20.3448 20.6583 20.4984 20.7022 20.7178L22.0408 30.4169V30.4608H33.5831C33.8245 30.4608 34.0219 30.2633 34.0219 30.0219V11.6112C34.0219 11.3699 33.8245 11.1724 33.5831 11.1724H6.43887C6.19749 11.1943 6 11.3918 6 11.6332V11.6551Z" fill="#517EFF"/>
<path d="M34 9H6V11.1944H34V9Z" fill="#3256F0"/>
<path d="M34 9H6V11.1944H34V9Z" fill="url(#paint0_linear_1024_2066)"/>
<path d="M9.26959 14.8808C8.01881 15.9999 6.54859 16.0438 6 16.0219V17.7774C6.04389 17.7774 6.08777 17.7774 6.17555 17.7774C7.07524 17.7774 8.89655 17.5799 10.4545 16.1755C12.5831 14.2664 12.5611 11.699 12.5172 11.1724H10.7618C10.7618 11.5673 10.8056 13.4984 9.26959 14.8589V14.8808Z" fill="url(#paint1_linear_1024_2066)"/>
<path d="M33.9998 16.0219C33.4951 16.0439 31.9591 16.0219 30.6864 14.8809C29.1503 13.4984 29.1723 11.5454 29.1942 11.1943H27.4387C27.4168 11.699 27.3729 14.2884 29.5014 16.1975C31.0594 17.6019 32.8807 17.7994 33.7804 17.7994C34.6801 17.7994 33.934 17.7994 33.9779 17.7994V16.0439L33.9998 16.0219Z" fill="url(#paint2_linear_1024_2066)"/>
<path d="M19.3198 20.8494V20.7178C19.3637 20.4983 19.5612 20.3447 19.7806 20.3447H20.022H20.2634C20.4828 20.3447 20.6584 20.4983 20.7023 20.7178L21.975 29.956V30.1096C22.0189 30.329 22.2164 30.4827 22.4358 30.4827H26.3418L20.3292 12.9717L19.3198 20.8494V20.8494Z" fill="url(#paint3_linear_1024_2066)"/>
</g>
<defs>
<linearGradient id="paint0_linear_1024_2066" x1="6" y1="10.0972" x2="34" y2="10.0972" gradientUnits="userSpaceOnUse">
<stop stop-color="white" stop-opacity="0.6"/>
<stop offset="0.2" stop-color="white" stop-opacity="0.8"/>
<stop offset="0.3" stop-color="white" stop-opacity="0.9"/>
<stop offset="0.4" stop-color="white"/>
<stop offset="0.5" stop-color="white"/>
<stop offset="0.6" stop-color="white"/>
<stop offset="0.7" stop-color="white" stop-opacity="0.9"/>
<stop offset="0.8" stop-color="white" stop-opacity="0.8"/>
<stop offset="0.9" stop-color="white" stop-opacity="0.7"/>
<stop offset="1" stop-color="white" stop-opacity="0.5"/>
</linearGradient>
<linearGradient id="paint1_linear_1024_2066" x1="6" y1="14.4858" x2="12.5172" y2="14.4858" gradientUnits="userSpaceOnUse">
<stop stop-color="white" stop-opacity="0.5"/>
<stop offset="1" stop-color="white"/>
</linearGradient>
<linearGradient id="paint2_linear_1024_2066" x1="33.539" y1="17.8871" x2="27.6362" y2="11.9843" gradientUnits="userSpaceOnUse">
<stop stop-color="white" stop-opacity="0.5"/>
<stop offset="1" stop-color="white"/>
</linearGradient>
<linearGradient id="paint3_linear_1024_2066" x1="23.511" y1="21.6613" x2="19.8245" y2="22.6707" gradientUnits="userSpaceOnUse">
<stop stop-color="#517EFF"/>
<stop offset="0.6" stop-color="#3256F0"/>
</linearGradient>
<clipPath id="clip0_1024_2066">
<rect width="28" height="21.5047" fill="white" transform="translate(6 9)"/>
</clipPath>
</defs>
</svg>
