<svg width="24" height="24" viewBox="0 0 24 24" fill="none" xmlns="http://www.w3.org/2000/svg">
<g clip-path="url(#clip0_1325_8356)">
<path d="M12 12.8458L20.887 19.8751H3.11299L12 12.8458ZM12 10.2852L0.527211 19.373C-0.502078 20.214 0.0878804 21.8835 1.43098 21.8835H22.5816C23.9121 21.8835 24.5147 20.214 23.4854 19.373L12 10.2852Z" fill="#596168"/>
<path d="M12.8787 8.74121H11.1213V11.7789H12.8787V8.74121Z" fill="#4165FF"/>
<path d="M13.067 11.967H10.9331V8.55273H13.067V11.967ZM11.3097 11.5904H12.6904V8.9293H11.3097V11.5904Z" fill="#4165FF"/>
<path d="M11.1213 8.75391V9.53215C11.3975 9.59491 11.6987 9.63257 12 9.63257C11.5105 9.63257 11.1213 9.24345 11.1213 8.75391Z" fill="#4165FF"/>
<path d="M12.0001 9.82071C11.6862 9.82071 11.385 9.78305 11.0837 9.70774L10.9331 9.67008V8.74121H11.3097C11.3097 9.11778 11.6235 9.43159 12.0001 9.43159V9.80816V9.82071Z" fill="#4165FF"/>
<path d="M15.8159 5.565C15.7029 3.65705 14.1465 2.11312 12.2511 2.00015C10.1297 1.87463 8.35984 3.45622 8.19667 5.50224C8.18411 5.66542 8.30964 5.8035 8.48537 5.8035H9.55231C9.7657 5.8035 9.94143 5.65287 9.97909 5.43948C10.1548 4.44785 11.046 3.69471 12.113 3.74492C13.1674 3.79513 14.0209 4.66124 14.0711 5.70308C14.1214 6.88299 13.1799 7.86207 12.0126 7.86207C12.5021 7.86207 12.8912 8.2512 12.8912 8.74074C12.8912 9.23028 12.5021 9.6194 12.0126 9.6194C14.1967 9.6194 15.9665 7.77421 15.8285 5.55245L15.8159 5.565Z" fill="#4165FF"/>
<path d="M12 9.82062V9.44405C12.3766 9.44405 12.6904 9.13025 12.6904 8.75368C12.6904 8.37711 12.3766 8.0633 12 8.0633V7.68673C12.5146 7.68673 12.9916 7.48589 13.3556 7.10933C13.7071 6.73276 13.8954 6.24322 13.8703 5.72857C13.8201 4.7746 13.0418 3.99635 12.0879 3.94615C11.1464 3.89594 10.318 4.56121 10.1548 5.49008C10.1046 5.79133 9.84099 6.00472 9.53974 6.00472H8.47279C8.34727 6.00472 8.20919 5.95451 8.12133 5.8541C8.03346 5.75368 7.98325 5.62815 7.99581 5.50263C8.18409 3.31853 10.092 1.67418 12.2636 1.7997C14.272 1.92522 15.8786 3.53192 16.0042 5.54029C16.0795 6.65744 15.6904 7.72439 14.9247 8.54029C14.1715 9.34364 13.1046 9.80807 12 9.80807V9.82062ZM12.7029 7.95033C12.9289 8.15117 13.0669 8.42732 13.0669 8.75368C13.0669 9.08004 13.0042 9.1679 12.8912 9.33108C13.5565 9.1679 14.159 8.81644 14.6485 8.30179C15.3389 7.56121 15.6904 6.59468 15.6276 5.57794C15.5146 3.75786 14.0586 2.30179 12.2385 2.18882C10.2678 2.0633 8.53555 3.55702 8.38493 5.52774C8.38493 5.56539 8.39748 5.5905 8.41003 5.60305C8.41003 5.60305 8.44769 5.62815 8.48534 5.62815H9.55229C9.66526 5.62815 9.76568 5.54029 9.79078 5.41476C9.99162 4.31016 10.9833 3.50681 12.113 3.55702C13.2552 3.60723 14.1966 4.54866 14.2594 5.70347C14.2845 6.31853 14.0711 6.90849 13.6443 7.36037C13.3807 7.63652 13.0669 7.83736 12.7155 7.95033H12.7029Z" fill="#4165FF"/>
<path d="M11.1213 8.74097C11.1213 8.25143 11.5105 7.8623 12 7.8623L11.1213 8.74097Z" fill="#4165FF"/>
<path d="M11.1214 8.92906C11.021 8.92906 10.9331 8.84119 10.9331 8.74077C10.9331 8.15082 11.4101 7.67383 12.0001 7.67383C12.59 7.67383 12.1883 7.76169 12.1883 7.86211C12.1883 7.96253 12.1005 8.0504 12.0001 8.0504C11.6235 8.0504 11.3097 8.3642 11.3097 8.74077C11.3097 8.84119 11.2218 8.92906 11.1214 8.92906Z" fill="#4165FF"/>
<path d="M10.9331 8.77858V8.72837V8.71582L11.1339 8.74093L11.3097 8.71582V8.76603V8.77858L11.1339 8.75348H10.9331H11.1214L10.9331 8.77858Z" fill="#4165FF"/>
<path d="M12.8787 8.75366C12.8787 8.26412 12.4895 7.875 12 7.875C11.5105 7.875 11.1213 8.26412 11.1213 8.75366C11.1213 9.2432 11.5105 9.63232 12 9.63232C12.4895 9.63232 12.8787 9.2432 12.8787 8.75366Z" fill="#4165FF"/>
<path d="M12.0001 9.82042C11.4101 9.82042 10.9331 9.34343 10.9331 8.75347C10.9331 8.16351 11.4101 7.68652 12.0001 7.68652C12.59 7.68652 13.067 8.16351 13.067 8.75347C13.067 9.34343 12.59 9.82042 12.0001 9.82042ZM12.0001 8.06309C11.6235 8.06309 11.3097 8.3769 11.3097 8.75347C11.3097 9.13004 11.6235 9.44385 12.0001 9.44385C12.3766 9.44385 12.6904 9.13004 12.6904 8.75347C12.6904 8.3769 12.3766 8.06309 12.0001 8.06309Z" fill="#4165FF"/>
<path d="M9.07519 6.39404C9.56047 6.39404 9.95386 6.00065 9.95386 5.51538C9.95386 5.03011 9.56047 4.63672 9.07519 4.63672C8.58992 4.63672 8.19653 5.03011 8.19653 5.51538C8.19653 6.00065 8.58992 6.39404 9.07519 6.39404Z" fill="#4165FF"/>
<path d="M9.07525 6.58213C8.48529 6.58213 8.0083 6.10515 8.0083 5.51519C8.0083 4.92523 8.48529 4.44824 9.07525 4.44824C9.6652 4.44824 10.1422 4.92523 10.1422 5.51519C10.1422 6.10515 9.6652 6.58213 9.07525 6.58213ZM9.07525 4.82481C8.69868 4.82481 8.38487 5.13862 8.38487 5.51519C8.38487 5.89176 8.69868 6.20556 9.07525 6.20556C9.45182 6.20556 9.76562 5.89176 9.76562 5.51519C9.76562 5.13862 9.45182 4.82481 9.07525 4.82481Z" fill="#4165FF"/>
<path d="M12 12.6958C12.4853 12.6958 12.8787 12.3024 12.8787 11.8171C12.8787 11.3319 12.4853 10.9385 12 10.9385C11.5147 10.9385 11.1213 11.3319 11.1213 11.8171C11.1213 12.3024 11.5147 12.6958 12 12.6958Z" fill="#4165FF"/>
<path d="M12.0001 12.8839C11.4101 12.8839 10.9331 12.4069 10.9331 11.8169C10.9331 11.227 11.4101 10.75 12.0001 10.75C12.59 10.75 13.067 11.227 13.067 11.8169C13.067 12.4069 12.59 12.8839 12.0001 12.8839ZM12.0001 11.1266C11.6235 11.1266 11.3097 11.4404 11.3097 11.8169C11.3097 12.1935 11.6235 12.5073 12.0001 12.5073C12.3766 12.5073 12.6904 12.1935 12.6904 11.8169C12.6904 11.4404 12.3766 11.1266 12.0001 11.1266Z" fill="#4165FF"/>
</g>
<defs>
<clipPath id="clip0_1325_8356">
<rect width="24" height="20.0837" fill="white" transform="translate(0 1.7998)"/>
</clipPath>
</defs>
</svg>
