<svg width="25" height="24" viewBox="0 0 25 24" fill="none" xmlns="http://www.w3.org/2000/svg">
<g clip-path="url(#clip0_1325_4725)">
<path d="M12.9712 12.8458L21.8582 19.8751H4.08418L12.9712 12.8458ZM12.9712 10.2852L1.4984 19.373C0.469114 20.214 1.05907 21.8835 2.40217 21.8835H23.5528C24.8833 21.8835 25.4859 20.214 24.4566 19.373L12.9712 10.2852Z" fill="#DADCE0"/>
<path d="M13.8499 8.74121H12.0925V11.7789H13.8499V8.74121Z" fill="#DADCE0"/>
<path d="M14.0382 11.967H11.9043V8.55273H14.0382V11.967ZM12.2809 11.5904H13.6616V8.9293H12.2809V11.5904Z" fill="#DADCE0"/>
<path d="M12.0925 8.75391V9.53215C12.3687 9.59491 12.6699 9.63257 12.9712 9.63257C12.4817 9.63257 12.0925 9.24345 12.0925 8.75391Z" fill="#DADCE0"/>
<path d="M12.9712 9.82071C12.6574 9.82071 12.3562 9.78305 12.0549 9.70774L11.9043 9.67008V8.74121H12.2809C12.2809 9.11778 12.5947 9.43159 12.9712 9.43159V9.80816V9.82071Z" fill="#DADCE0"/>
<path d="M16.7871 5.565C16.6741 3.65705 15.1176 2.11312 13.2222 2.00015C11.1009 1.87463 9.33104 3.45622 9.16786 5.50224C9.1553 5.66542 9.28083 5.8035 9.45656 5.8035H10.5235C10.7369 5.8035 10.9126 5.65287 10.9503 5.43948C11.126 4.44785 12.0172 3.69471 13.0842 3.74492C14.1386 3.79513 14.9921 4.66124 15.0423 5.70308C15.0925 6.88299 14.1511 7.86207 12.9838 7.86207C13.4733 7.86207 13.8624 8.2512 13.8624 8.74074C13.8624 9.23028 13.4733 9.6194 12.9838 9.6194C15.1679 9.6194 16.9377 7.77421 16.7997 5.55245L16.7871 5.565Z" fill="#DADCE0"/>
<path d="M12.9712 9.82062V9.44405C13.3477 9.44405 13.6616 9.13025 13.6616 8.75368C13.6616 8.37711 13.3477 8.0633 12.9712 8.0633V7.68673C13.4858 7.68673 13.9628 7.48589 14.3268 7.10933C14.6783 6.73276 14.8666 6.24322 14.8415 5.72857C14.7913 4.7746 14.013 3.99635 13.059 3.94615C12.1176 3.89594 11.2892 4.56121 11.126 5.49008C11.0758 5.79133 10.8122 6.00472 10.5109 6.00472H9.44398C9.31846 6.00472 9.18039 5.95451 9.09252 5.8541C9.00465 5.75368 8.95444 5.62815 8.967 5.50263C9.15528 3.31853 11.0632 1.67418 13.2348 1.7997C15.2431 1.92522 16.8498 3.53192 16.9754 5.54029C17.0507 6.65744 16.6616 7.72439 15.8959 8.54029C15.1427 9.34364 14.0758 9.80807 12.9712 9.80807V9.82062ZM13.6741 7.95033C13.9001 8.15117 14.0381 8.42732 14.0381 8.75368C14.0381 9.08004 13.9754 9.1679 13.8624 9.33108C14.5277 9.1679 15.1302 8.81644 15.6197 8.30179C16.3101 7.56121 16.6616 6.59468 16.5988 5.57794C16.4858 3.75786 15.0298 2.30179 13.2097 2.18882C11.239 2.0633 9.50675 3.55702 9.35612 5.52774C9.35612 5.56539 9.36867 5.5905 9.38122 5.60305C9.38122 5.60305 9.41888 5.62815 9.45654 5.62815H10.5235C10.6365 5.62815 10.7369 5.54029 10.762 5.41476C10.9628 4.31016 11.9544 3.50681 13.0842 3.55702C14.2264 3.60723 15.1678 4.54866 15.2306 5.70347C15.2557 6.31853 15.0423 6.90849 14.6155 7.36037C14.3519 7.63652 14.0381 7.83736 13.6867 7.95033H13.6741Z" fill="#DADCE0"/>
<path d="M12.0925 8.74097C12.0925 8.25143 12.4817 7.8623 12.9712 7.8623L12.0925 8.74097Z" fill="#DADCE0"/>
<path d="M12.0926 8.92906C11.9922 8.92906 11.9043 8.84119 11.9043 8.74077C11.9043 8.15082 12.3813 7.67383 12.9712 7.67383C13.5612 7.67383 13.1595 7.76169 13.1595 7.86211C13.1595 7.96253 13.0717 8.0504 12.9712 8.0504C12.5947 8.0504 12.2809 8.3642 12.2809 8.74077C12.2809 8.84119 12.193 8.92906 12.0926 8.92906Z" fill="#DADCE0"/>
<path d="M11.9043 8.77858V8.72837V8.71582L12.1051 8.74093L12.2809 8.71582V8.76603V8.77858L12.1051 8.75348H11.9043H12.0926L11.9043 8.77858Z" fill="#DADCE0"/>
<path d="M13.8499 8.75366C13.8499 8.26412 13.4607 7.875 12.9712 7.875C12.4817 7.875 12.0925 8.26412 12.0925 8.75366C12.0925 9.2432 12.4817 9.63232 12.9712 9.63232C13.4607 9.63232 13.8499 9.2432 13.8499 8.75366Z" fill="#DADCE0"/>
<path d="M12.9712 9.82042C12.3813 9.82042 11.9043 9.34343 11.9043 8.75347C11.9043 8.16351 12.3813 7.68652 12.9712 7.68652C13.5612 7.68652 14.0382 8.16351 14.0382 8.75347C14.0382 9.34343 13.5612 9.82042 12.9712 9.82042ZM12.9712 8.06309C12.5947 8.06309 12.2809 8.3769 12.2809 8.75347C12.2809 9.13004 12.5947 9.44385 12.9712 9.44385C13.3478 9.44385 13.6616 9.13004 13.6616 8.75347C13.6616 8.3769 13.3478 8.06309 12.9712 8.06309Z" fill="#DADCE0"/>
<path d="M10.0464 6.39404C10.5317 6.39404 10.925 6.00065 10.925 5.51538C10.925 5.03011 10.5317 4.63672 10.0464 4.63672C9.56111 4.63672 9.16772 5.03011 9.16772 5.51538C9.16772 6.00065 9.56111 6.39404 10.0464 6.39404Z" fill="#DADCE0"/>
<path d="M10.0464 6.58213C9.45648 6.58213 8.97949 6.10515 8.97949 5.51519C8.97949 4.92523 9.45648 4.44824 10.0464 4.44824C10.6364 4.44824 11.1134 4.92523 11.1134 5.51519C11.1134 6.10515 10.6364 6.58213 10.0464 6.58213ZM10.0464 4.82481C9.66987 4.82481 9.35606 5.13862 9.35606 5.51519C9.35606 5.89176 9.66987 6.20556 10.0464 6.20556C10.423 6.20556 10.7368 5.89176 10.7368 5.51519C10.7368 5.13862 10.423 4.82481 10.0464 4.82481Z" fill="#DADCE0"/>
<path d="M12.9712 12.6958C13.4565 12.6958 13.8499 12.3024 13.8499 11.8171C13.8499 11.3319 13.4565 10.9385 12.9712 10.9385C12.4859 10.9385 12.0925 11.3319 12.0925 11.8171C12.0925 12.3024 12.4859 12.6958 12.9712 12.6958Z" fill="#DADCE0"/>
<path d="M12.9712 12.8839C12.3813 12.8839 11.9043 12.4069 11.9043 11.8169C11.9043 11.227 12.3813 10.75 12.9712 10.75C13.5612 10.75 14.0382 11.227 14.0382 11.8169C14.0382 12.4069 13.5612 12.8839 12.9712 12.8839ZM12.9712 11.1266C12.5947 11.1266 12.2809 11.4404 12.2809 11.8169C12.2809 12.1935 12.5947 12.5073 12.9712 12.5073C13.3478 12.5073 13.6616 12.1935 13.6616 11.8169C13.6616 11.4404 13.3478 11.1266 12.9712 11.1266Z" fill="#DADCE0"/>
</g>
<defs>
<clipPath id="clip0_1325_4725">
<rect width="24" height="20.0837" fill="white" transform="translate(0.971191 1.7998)"/>
</clipPath>
</defs>
</svg>
