<svg width="26" height="26" viewBox="0 0 26 26" fill="none" xmlns="http://www.w3.org/2000/svg">
<g clip-path="url(#clip0_916_2118)">
<path d="M4.5855 11.171C5.46115 11.171 6.17101 10.4612 6.17101 9.5855C6.17101 8.70985 5.46115 8 4.5855 8C3.70985 8 3 8.70985 3 9.5855C3 10.4612 3.70985 11.171 4.5855 11.171Z" fill="#DADCE0"/>
<path d="M5.69439 8.45942L3.45215 10.7017L10.7394 17.9889L12.9817 15.7467L5.69439 8.45942Z" fill="#DADCE0"/>
<path d="M21.4146 11.171C22.2903 11.171 23.0001 10.4612 23.0001 9.5855C23.0001 8.70985 22.2903 8 21.4146 8C20.539 8 19.8291 8.70985 19.8291 9.5855C19.8291 10.4612 20.539 11.171 21.4146 11.171Z" fill="#DADCE0"/>
<path d="M13.0019 15.7541L15.2441 17.9963L22.5314 10.7091L20.2892 8.46681L13.0019 15.7541Z" fill="#DADCE0"/>
<path d="M15.231 17.9813L12.9888 15.739L10.7465 17.9813L12.9888 20.2235L15.231 17.9813Z" fill="#DADCE0"/>
</g>
<defs>
<clipPath id="clip0_916_2118">
<rect width="20" height="12.231" fill="white" transform="translate(3 8)"/>
</clipPath>
</defs>
</svg>
