<svg width="45" height="31" viewBox="0 0 45 31" fill="none" xmlns="http://www.w3.org/2000/svg">
<g clip-path="url(#clip0_1008_2113)">
<g clip-path="url(#clip1_1008_2113)">
<path d="M15.1324 16.553C12.6135 16.553 10.0567 15.7765 7.84074 14.2234C7.15892 13.75 6.98847 12.803 7.46195 12.1212C7.93544 11.4394 8.88241 11.2689 9.56423 11.7424C12.5945 13.8636 16.4392 14.1098 19.3559 12.4053C22.3673 10.6439 23.2195 7.48102 23.4089 6.55299C23.5415 5.89011 24.1097 5.39768 24.7915 5.34087C25.4733 5.30299 26.0983 5.70071 26.3256 6.34465C26.6476 7.25374 27.462 8.92041 29.318 9.99996C32.0263 11.5909 34.8483 10.6439 35.3786 10.4356C36.1551 10.1325 37.0453 10.5303 37.3294 11.3068C37.6324 12.0833 37.2347 12.9734 36.4582 13.2575C35.7006 13.5416 31.6854 14.8863 27.7839 12.6136C26.6854 11.9697 25.8521 11.1931 25.2082 10.4166C24.3938 11.9886 23.0491 13.7689 20.89 15.0189C19.1286 16.0606 17.14 16.5719 15.0945 16.5719L15.1324 16.553Z" fill="#596168"/>
<path d="M35.7763 15.2651C35.2839 15.4735 34.943 15.928 34.9051 16.4583C34.8104 17.7273 34.5263 18.9394 34.0718 20.0758C32.2346 24.678 27.7271 27.9545 22.4619 27.9545C17.1968 27.9545 11.7422 23.9583 10.3596 18.5606C10.246 18.125 9.94297 17.7651 9.52631 17.5758C9.10964 17.3864 9.46949 17.5568 9.45055 17.5379C8.31419 17.0454 7.10207 18.0871 7.4051 19.2992C9.10964 26.0038 15.1892 30.9659 22.443 30.9659C29.6968 30.9659 35.3028 26.3826 37.2725 20.0947C37.4998 19.3561 37.6702 17.9356 37.7839 16.6667C37.8786 15.5871 36.799 14.8295 35.7952 15.2273C34.7915 15.625 35.7763 15.2273 35.7574 15.2273L35.7763 15.2651Z" fill="#596168"/>
<path d="M22.4999 24.7538C20.1135 24.7538 18.4469 23.3901 17.6514 22.5757C17.0643 21.9697 17.0832 21.0227 17.6893 20.4356C18.2954 19.8485 19.2423 19.8674 19.8294 20.4735C20.284 20.947 21.2499 21.7424 22.5188 21.7424C23.7878 21.7424 24.1287 21.572 25.2082 20.4735C25.7954 19.8674 26.7423 19.8674 27.3484 20.4356C27.9544 21.0038 27.9544 21.9697 27.3863 22.5757C25.5491 24.4697 23.5605 24.7538 22.5378 24.7538H22.4999Z" fill="#4165FF"/>
<path d="M10.0759 14.5455C10.1328 13.7879 10.2653 13.0303 10.4547 12.3106C11.8941 6.83712 16.8563 3.0303 22.5191 3.0303C28.182 3.0303 31.9509 5.96591 33.9396 10.4924C34.2237 11.1553 34.451 11.8371 34.6214 12.5379L37.4434 11.3636C37.254 10.6439 37.0078 9.94318 36.7047 9.2803C34.2994 3.82576 28.8449 0 22.5002 0C16.1555 0 9.26156 4.9053 7.50019 11.5341C7.36762 12.0644 7.25398 12.5947 7.17822 13.1439L10.057 14.5455H10.0759Z" fill="#596168"/>
<path d="M3.97738 18.3712V12.7652C3.97738 12.6326 3.9395 12.519 3.8448 12.4243C3.65541 12.2349 3.35238 12.2349 3.18192 12.4243L0.681922 14.9243L0.019043 15.5872L0.681922 16.25L3.18192 18.75C3.37132 18.9394 3.67435 18.9394 3.8448 18.75C4.01525 18.5606 3.99632 18.5038 3.97738 18.3523V18.3712Z" fill="#4165FF"/>
<path d="M44.3182 14.9243L41.8182 12.4243C41.6288 12.2349 41.3257 12.2349 41.1553 12.4243C41.0417 12.5379 41.0038 12.6705 41.0227 12.822V18.4281C41.0227 18.4281 41.0606 18.6743 41.1553 18.769C41.3447 18.9584 41.6477 18.9584 41.8182 18.769L44.3182 16.269L44.981 15.6061L44.3182 14.9432V14.9243Z" fill="#4165FF"/>
</g>
</g>
<defs>
<clipPath id="clip0_1008_2113">
<rect width="45" height="30.9848" fill="white"/>
</clipPath>
<clipPath id="clip1_1008_2113">
<rect width="45" height="30.9849" fill="white"/>
</clipPath>
</defs>
</svg>
