<svg width="40" height="40" viewBox="0 0 40 40" fill="none" xmlns="http://www.w3.org/2000/svg">
<g clip-path="url(#clip0_1024_1845)">
<path d="M33 15.7654H6V31.8442C6 32.6577 6.62308 33.3327 7.40192 33.3327H31.5981C32.3769 33.3327 33 32.6577 33 31.8269V15.7654Z" fill="#4165FF"/>
<path d="M33 15.7655H6V9.50007C6 8.72122 6.62308 8.09814 7.40192 8.09814H31.5981C32.3769 8.09814 33 8.72122 33 9.50007V15.7655Z" fill="#4165FF"/>
<path d="M12.8537 6.45386H10.0845V10.3827H12.8537V6.45386Z" fill="#4165FF"/>
<path d="M20.8674 6.45386H18.0981V10.3481H20.8674V6.45386Z" fill="#4165FF"/>
<path d="M11.4691 5C10.7075 5 10.0845 5.62308 10.0845 6.38462C10.0845 7.14615 10.7075 7.76923 11.4691 7.76923C12.2306 7.76923 12.8537 7.14615 12.8537 6.38462C12.8537 5.62308 12.2306 5 11.4691 5Z" fill="#4165FF"/>
<path d="M19.4828 5C18.7212 5 18.0981 5.62308 18.0981 6.38462C18.0981 7.14615 18.7212 7.76923 19.4828 7.76923C20.2443 7.76923 20.8674 7.14615 20.8674 6.38462C20.8674 5.62308 20.2616 5 19.4828 5Z" fill="#4165FF"/>
<path d="M11.4691 9.03271C10.7075 9.03271 10.0845 9.65579 10.0845 10.4173C10.0845 11.1789 10.7075 11.8019 11.4691 11.8019C12.2306 11.8019 12.8537 11.1789 12.8537 10.4173C12.8537 9.65579 12.2306 9.03271 11.4691 9.03271V9.03271Z" fill="white"/>
<path d="M28.9328 6.45386H26.1636V10.3827H28.9328V6.45386Z" fill="#4165FF"/>
<path d="M27.5482 5C26.7867 5 26.1636 5.62308 26.1636 6.38462C26.1636 7.14615 26.7867 7.76923 27.5482 7.76923C28.3097 7.76923 28.9328 7.14615 28.9328 6.38462C28.9328 5.62308 28.3097 5 27.5482 5Z" fill="#4165FF"/>
<path d="M27.5482 9.03271C26.7867 9.03271 26.1636 9.65579 26.1636 10.4173C26.1636 11.1789 26.7867 11.8019 27.5482 11.8019C28.3097 11.8019 28.9328 11.1789 28.9328 10.4173C28.9328 9.65579 28.3097 9.03271 27.5482 9.03271V9.03271Z" fill="white"/>
<path d="M19.4828 9.03271C18.7212 9.03271 18.0981 9.65579 18.0981 10.4173C18.0981 11.1789 18.7212 11.8019 19.4828 11.8019C20.2443 11.8019 20.8674 11.1789 20.8674 10.4173C20.8674 9.65579 20.2443 9.03271 19.4828 9.03271V9.03271Z" fill="white"/>
<path d="M14.0307 26.2019H11.9192C11.7376 26.2019 11.5903 26.3491 11.5903 26.5308V28.6423C11.5903 28.8239 11.7376 28.9711 11.9192 28.9711H14.0307C14.2123 28.9711 14.3596 28.8239 14.3596 28.6423V26.5308C14.3596 26.3491 14.2123 26.2019 14.0307 26.2019Z" fill="white"/>
<path d="M27.081 26.2019H24.9695C24.7879 26.2019 24.6406 26.3491 24.6406 26.5308V28.6423C24.6406 28.8239 24.7879 28.9711 24.9695 28.9711H27.081C27.2626 28.9711 27.4099 28.8239 27.4099 28.6423V26.5308C27.4099 26.3491 27.2626 26.2019 27.081 26.2019Z" fill="white"/>
<path d="M20.5385 26.2019H18.427C18.2454 26.2019 18.0981 26.3491 18.0981 26.5308V28.6423C18.0981 28.8239 18.2454 28.9711 18.427 28.9711H20.5385C20.7201 28.9711 20.8674 28.8239 20.8674 28.6423V26.5308C20.8674 26.3491 20.7201 26.2019 20.5385 26.2019Z" fill="white"/>
<path d="M14.0307 20.127H11.9192C11.7376 20.127 11.5903 20.2742 11.5903 20.4558V22.5673C11.5903 22.749 11.7376 22.8962 11.9192 22.8962H14.0307C14.2123 22.8962 14.3596 22.749 14.3596 22.5673V20.4558C14.3596 20.2742 14.2123 20.127 14.0307 20.127Z" fill="white"/>
<path d="M27.081 20.127H24.9695C24.7879 20.127 24.6406 20.2742 24.6406 20.4558V22.5673C24.6406 22.749 24.7879 22.8962 24.9695 22.8962H27.081C27.2626 22.8962 27.4099 22.749 27.4099 22.5673V20.4558C27.4099 20.2742 27.2626 20.127 27.081 20.127Z" fill="white"/>
<path d="M20.5385 20.127H18.427C18.2454 20.127 18.0981 20.2742 18.0981 20.4558V22.5673C18.0981 22.749 18.2454 22.8962 18.427 22.8962H20.5385C20.7201 22.8962 20.8674 22.749 20.8674 22.5673V20.4558C20.8674 20.2742 20.7201 20.127 20.5385 20.127Z" fill="white"/>
<path d="M33 13.8096H6V16.5788H33V13.8096Z" fill="white"/>
<path d="M7.40192 33.3327C8.17618 33.3327 8.80385 32.705 8.80385 31.9307C8.80385 31.1565 8.17618 30.5288 7.40192 30.5288C6.62766 30.5288 6 31.1565 6 31.9307C6 32.705 6.62766 33.3327 7.40192 33.3327Z" fill="#4165FF"/>
</g>
<defs>
<clipPath id="clip0_1024_1845">
<rect width="27" height="28.3327" fill="white" transform="translate(6 5)"/>
</clipPath>
</defs>
</svg>
