<svg width="40" height="40" viewBox="0 0 40 40" fill="none" xmlns="http://www.w3.org/2000/svg">
<g clip-path="url(#clip0_1024_1846)">
<path d="M13.8728 29.2699L12.3853 33.7501L15.1832 35.8397L19.1498 34.5293L34.2905 19.3887L29.0311 14.1116L13.8728 29.2699Z" fill="white"/>
<path d="M19.15 34.5293L19.2563 32.2095C19.2563 31.9616 19.0615 31.7668 18.8313 31.7845L16.9719 31.873C16.724 31.873 16.5292 31.6782 16.5469 31.448L16.6354 29.5886C16.6354 29.3407 16.4406 29.1459 16.2104 29.1636L13.8906 29.2699L26.6229 16.5376L31.8823 21.797L19.15 34.5293V34.5293Z" fill="#4165FF"/>
<path d="M34.0426 19.6363L28.7832 14.377L31.2624 11.8978C31.8999 11.2603 32.9447 11.2603 33.5822 11.8978L36.5395 14.8551C37.177 15.4926 37.177 16.5374 36.5395 17.1749L34.0603 19.6541L34.0426 19.6363Z" fill="#4165FF"/>
<path d="M12.5626 33.2009L11.5178 36.3707C11.4116 36.6895 11.7126 36.9905 12.0314 36.8843L15.1835 35.8395L12.5626 33.2009Z" fill="#4165FF"/>
<path d="M15.4667 23.7625L22.7094 16.5198L22.5324 12.2698C22.4969 11.526 23.2407 10.9948 23.949 11.2604L24.3563 11.4198C24.8699 11.6146 25.4542 11.3844 25.6844 10.8708L27.3136 7.20521C27.5615 6.65625 27.2959 6.01875 26.7292 5.80625L25.0469 5.16875C22.9928 4.38958 20.8146 4 18.6188 4C18.1584 4 17.7511 4.28333 17.6094 4.70833C17.273 5.75312 16.3167 6.49687 15.2011 6.53229C14.0855 6.51458 13.1292 5.75312 12.7928 4.70833C12.6511 4.28333 12.2438 4 11.8011 4C9.58756 4 7.40944 4.38958 5.35527 5.16875L3.67298 5.80625C3.10631 6.01875 2.84069 6.65625 3.08861 7.20521L4.71777 10.8708C4.94798 11.3844 5.53236 11.6146 6.0459 11.4198L6.45319 11.2604C7.14381 10.9948 7.90527 11.526 7.86986 12.2698L7.44486 22.6823C7.42715 23.2667 7.88756 23.7625 8.48965 23.7625H15.4667Z" fill="#4165FF"/>
<path d="M18.1583 21.0531L20.9917 18.2197H7.62188L7.51562 21.0531H18.1583Z" fill="white"/>
</g>
<defs>
<clipPath id="clip0_1024_1846">
<rect width="34" height="32.9198" fill="white" transform="translate(3 4)"/>
</clipPath>
</defs>
</svg>
