<svg width="40" height="40" viewBox="0 0 40 40" fill="none" xmlns="http://www.w3.org/2000/svg">
<g clip-path="url(#clip0_1024_1844)">
<path d="M20.0169 33.5758C27.6317 33.5758 33.8048 27.4027 33.8048 19.7879C33.8048 12.173 27.6317 6 20.0169 6C12.402 6 6.229 12.173 6.229 19.7879C6.229 27.4027 12.402 33.5758 20.0169 33.5758Z" fill="#4165FF"/>
<path d="M3.53512 22.3636V17.3805C3.53512 17.2626 3.50145 17.1616 3.41727 17.0774C3.24892 16.9091 2.97956 16.9091 2.82805 17.0774L0.605827 19.2997L0.0166016 19.8889L0.605827 20.4781L2.82805 22.7003C2.9964 22.8687 3.26576 22.8687 3.41727 22.7003C3.56879 22.532 3.55196 22.4815 3.53512 22.3468V22.3636Z" fill="#4165FF"/>
<path d="M39.3939 19.2997L37.1717 17.0774C37.0033 16.9091 36.7339 16.9091 36.5824 17.0774C36.4814 17.1784 36.4477 17.2963 36.4646 17.431V22.4141C36.4646 22.4141 36.4983 22.633 36.5824 22.7172C36.7508 22.8855 37.0201 22.8855 37.1717 22.7172L39.3939 20.4949L39.9831 19.9057L39.3939 19.3165V19.2997Z" fill="#4165FF"/>
<path d="M31.4307 12.0439C29.9324 13.9462 27.8449 14.2156 27.0031 13.5759C26.4813 13.1718 26.2792 12.2964 26.2792 11.5893C26.2792 11.0001 25.892 10.495 25.3365 10.3099C24.7809 10.1415 24.1749 10.3435 23.8382 10.8149C21.3802 14.2829 17.5587 16.1684 13.8382 15.6971C11.0604 15.3435 9.07385 13.761 8.14792 12.8351C8.14792 12.8351 8.13109 12.8351 8.11425 12.8183C7.64287 13.6264 7.25567 14.5018 6.95264 15.394C8.41728 16.6567 10.6058 18.0035 13.5015 18.3738C13.9897 18.4412 14.4779 18.458 14.9661 18.458C18.3499 18.458 21.7001 17.0102 24.2927 14.4344C24.5452 14.9058 24.9156 15.3435 25.4038 15.7139C27.2052 17.0607 30.3701 16.9092 32.8112 14.5354C32.4408 13.6432 31.9863 12.8014 31.4644 12.0102L31.4307 12.0439Z" fill="white"/>
<path d="M20.0167 28.8452C20.0167 28.8452 19.9831 28.8452 19.9662 28.8452C17.6767 28.8284 15.6396 27.2627 15.0504 25.0405C14.8484 24.3166 15.2861 23.5759 15.9932 23.3907C16.7171 23.1887 17.4578 23.6264 17.643 24.3334C17.9292 25.3941 18.8888 26.1348 19.9831 26.1516C19.9831 26.1516 19.9831 26.1516 19.9999 26.1516C21.111 26.1516 22.0706 25.4109 22.3736 24.3334C22.5756 23.6095 23.3164 23.1887 24.0235 23.3907C24.7474 23.5927 25.1682 24.3334 24.9662 25.0405C24.3602 27.2796 22.3231 28.8452 19.9999 28.8452H20.0167Z" fill="white"/>
</g>
<defs>
<clipPath id="clip0_1024_1844">
<rect width="40" height="27.5926" fill="white" transform="translate(0 6)"/>
</clipPath>
</defs>
</svg>
