<svg width="26" height="26" viewBox="0 0 26 26" fill="none" xmlns="http://www.w3.org/2000/svg">
<path d="M13 26C20.1797 26 26 20.1797 26 13C26 5.8203 20.1797 0 13 0C5.8203 0 0 5.8203 0 13C0 20.1797 5.8203 26 13 26Z" fill="#E16C64"/>
<path d="M19.4201 17.4999L14.9601 13.0399L19.4201 8.57993C19.6801 8.31993 19.8401 7.97993 19.8401 7.57993C19.8401 6.79993 19.2201 6.17993 18.4401 6.17993C17.6601 6.17993 17.7001 6.33993 17.4601 6.59993L13.0001 11.0599L8.54014 6.59993C8.28014 6.33993 7.94014 6.17993 7.54014 6.17993C6.76014 6.17993 6.14014 6.79993 6.14014 7.57993C6.14014 8.35993 6.30014 8.31993 6.56014 8.55993L11.0201 13.0199L6.56014 17.4799C6.30014 17.7399 6.14014 18.0799 6.14014 18.4799C6.14014 19.2599 6.76014 19.8799 7.54014 19.8799C8.32014 19.8799 8.28014 19.7199 8.54014 19.4599L13.0001 14.9999L17.4601 19.4599C17.7201 19.7199 18.0601 19.8799 18.4401 19.8799C19.2201 19.8799 19.8401 19.2599 19.8401 18.4799C19.8401 17.6999 19.6801 17.7399 19.4201 17.4799V17.4999Z" fill="white"/>
</svg>
