<svg width="24" height="25" viewBox="0 0 24 25" fill="none" xmlns="http://www.w3.org/2000/svg">
<g clip-path="url(#clip0_1325_6335)">
<path d="M12.0378 13.3201C9.9259 13.3201 8.198 11.588 8.198 9.47107C8.198 7.35412 9.9259 5.62207 12.0378 5.62207C14.1497 5.62207 15.8776 7.35412 15.8776 9.47107C15.8776 11.588 14.1497 13.3201 12.0378 13.3201ZM12.0378 7.8215C11.1327 7.8215 10.3922 8.56381 10.3922 9.47107C10.3922 10.3783 11.1327 11.1206 12.0378 11.1206C12.9429 11.1206 13.6834 10.3783 13.6834 9.47107C13.6834 8.56381 12.9429 7.8215 12.0378 7.8215Z" fill="#DADCE0"/>
<path d="M12.0378 2.19943C16.1519 2.19943 19.4843 5.55356 19.4843 9.66375C19.4843 11.8632 18.4421 14.0351 16.097 16.7294L12.0515 21.252C11.4481 20.5647 10.927 19.9873 10.3785 19.3962C9.73396 18.6952 8.99343 17.8841 7.99234 16.7432C5.63361 14.0489 4.59138 11.8632 4.59138 9.66375C4.59138 5.53982 7.93749 2.19943 12.0378 2.19943M12.0378 0C6.71698 0 2.39722 4.33013 2.39722 9.66375C2.39722 12.9766 4.24854 15.7947 6.34671 18.1865C8.55459 20.7159 9.41855 21.5132 11.1602 23.5614C11.2013 23.6164 11.2424 23.6576 11.2836 23.7126C11.4756 23.9051 11.7498 24.0288 12.0515 24.0288C12.3532 24.0288 12.6138 23.9051 12.8195 23.7126L12.9155 23.6026L17.7564 18.1865C19.8545 15.7809 21.7059 12.9766 21.7059 9.66375C21.6922 4.33013 17.3724 0 12.0378 0V0Z" fill="#DADCE0"/>
</g>
<defs>
<clipPath id="clip0_1325_6335">
<rect width="19.2949" height="24.0288" fill="white" transform="translate(2.39722)"/>
</clipPath>
</defs>
</svg>
