<svg width="22" height="22" viewBox="0 0 22 22" fill="none" xmlns="http://www.w3.org/2000/svg">
<g clip-path="url(#clip0_1471_2564)">
<g clip-path="url(#clip1_1471_2564)">
<path d="M11.0006 7.69385C9.17701 7.69385 7.69385 9.17701 7.69385 11.0006C7.69385 12.8243 9.17701 14.3074 11.0006 14.3074C12.8243 14.3074 14.3074 12.8243 14.3074 11.0006C14.3074 9.17701 12.8243 7.69385 11.0006 7.69385ZM11.0006 12.5928C10.1225 12.5928 9.40848 11.8788 9.40848 11.0006C9.40848 10.1225 10.1225 9.40848 11.0006 9.40848C11.8788 9.40848 12.5928 10.1225 12.5928 11.0006C12.5928 11.8788 11.8788 12.5928 11.0006 12.5928Z" fill="#DADCE0"/>
<path d="M11.0005 4.65279C10.4592 4.65279 10.0208 4.21433 10.0208 3.67299V0.979792C10.0208 0.438457 10.4592 0 11.0005 0C11.5419 0 11.9803 0.438457 11.9803 0.979792V3.67299C11.9803 4.21433 11.5419 4.65279 11.0005 4.65279Z" fill="#DADCE0"/>
<path d="M11.0005 22C10.4592 22 10.0208 21.5615 10.0208 21.0202V18.3282C10.0208 17.7868 10.4592 17.3484 11.0005 17.3484C11.5419 17.3484 11.9803 17.7868 11.9803 18.3282V21.0202C11.9803 21.5615 11.5419 22 11.0005 22Z" fill="#DADCE0"/>
<path d="M21.0202 11.9803H18.3282C17.7868 11.9803 17.3484 11.5419 17.3484 11.0005C17.3484 10.4592 17.7868 10.0208 18.3282 10.0208H21.0202C21.5615 10.0208 22 10.4592 22 11.0005C22 11.5419 21.5615 11.9803 21.0202 11.9803Z" fill="#DADCE0"/>
<path d="M3.67299 11.9803H0.979792C0.438457 11.9803 0 11.5419 0 11.0005C0 10.4592 0.438457 10.0208 0.979792 10.0208H3.67299C4.21433 10.0208 4.65279 10.4592 4.65279 11.0005C4.65279 11.5419 4.21433 11.9803 3.67299 11.9803Z" fill="#DADCE0"/>
<path d="M10.9995 5.52122C14.0209 5.52122 16.4777 7.97927 16.4777 10.9995C16.4777 14.0197 14.0197 16.4777 10.9995 16.4777C7.97927 16.4777 5.52122 14.0197 5.52122 10.9995C5.52122 7.97927 7.97927 5.52122 10.9995 5.52122ZM10.9995 3.52856C6.87333 3.52856 3.52856 6.87333 3.52856 10.9995C3.52856 15.1256 6.87333 18.4704 10.9995 18.4704C15.1256 18.4704 18.4704 15.1256 18.4704 10.9995C18.4704 6.87333 15.1256 3.52856 10.9995 3.52856Z" fill="#DADCE0"/>
</g>
</g>
<defs>
<clipPath id="clip0_1471_2564">
<rect width="22" height="22" fill="white"/>
</clipPath>
<clipPath id="clip1_1471_2564">
<rect width="22" height="22" fill="white"/>
</clipPath>
</defs>
</svg>
