<svg width="18" height="19" viewBox="0 0 18 19" fill="none" xmlns="http://www.w3.org/2000/svg">
<g clip-path="url(#clip0_1732_7185)">
<path d="M9.02828 9.9903C7.44437 9.9903 6.14844 8.69126 6.14844 7.10355C6.14844 5.51584 7.44437 4.2168 9.02828 4.2168C10.6122 4.2168 11.9081 5.51584 11.9081 7.10355C11.9081 8.69126 10.6122 9.9903 9.02828 9.9903ZM9.02828 5.86637C8.34946 5.86637 7.79406 6.4231 7.79406 7.10355C7.79406 7.784 8.34946 8.34073 9.02828 8.34073C9.7071 8.34073 10.2625 7.784 10.2625 7.10355C10.2625 6.4231 9.7071 5.86637 9.02828 5.86637Z" fill="#4165FF"/>
<path d="M9.02831 1.64957C12.1139 1.64957 14.6131 4.16517 14.6131 7.24781C14.6131 8.89738 13.8315 10.5263 12.0727 12.5471L9.0386 15.939C8.58605 15.4235 8.19522 14.9905 7.78381 14.5472C7.30041 14.0214 6.74501 13.4131 5.99419 12.5574C4.22515 10.5366 3.44348 8.89738 3.44348 7.24781C3.44348 4.15486 5.95305 1.64957 9.02831 1.64957M9.02831 0C5.03767 0 1.79785 3.2476 1.79785 7.24781C1.79785 9.73248 3.18635 11.846 4.75997 13.6399C6.41588 15.5369 7.06385 16.1349 8.37006 17.671C8.40092 17.7123 8.43177 17.7432 8.46263 17.7845C8.60662 17.9288 8.81232 18.0216 9.0386 18.0216C9.26487 18.0216 9.46029 17.9288 9.61457 17.7845L9.68656 17.702L13.3172 13.6399C14.8908 11.8357 16.2793 9.73248 16.2793 7.24781C16.2691 3.2476 13.0292 0 9.02831 0V0Z" fill="#4165FF"/>
</g>
<defs>
<clipPath id="clip0_1732_7185">
<rect width="14.4712" height="18.0216" fill="white" transform="translate(1.79785)"/>
</clipPath>
</defs>
</svg>
