<svg width="22" height="22" viewBox="0 0 22 22" fill="none" xmlns="http://www.w3.org/2000/svg">
<g clip-path="url(#clip0_1471_5109)">
<g clip-path="url(#clip1_1471_5109)">
<path d="M11.0006 7.69382C9.17701 7.69382 7.69385 9.17698 7.69385 11.0006C7.69385 12.8243 9.17701 14.3074 11.0006 14.3074C12.8243 14.3074 14.3074 12.8243 14.3074 11.0006C14.3074 9.17698 12.8243 7.69382 11.0006 7.69382V7.69382ZM11.0006 12.5928C10.1225 12.5928 9.40848 11.8788 9.40848 11.0006C9.40848 10.1225 10.1225 9.40845 11.0006 9.40845C11.8788 9.40845 12.5928 10.1225 12.5928 11.0006C12.5928 11.8788 11.8788 12.5928 11.0006 12.5928Z" fill="#4165FF"/>
<path d="M11.0005 4.65279C10.4592 4.65279 10.0208 4.21433 10.0208 3.67299V0.979792C10.0208 0.438457 10.4592 0 11.0005 0C11.5419 0 11.9803 0.438457 11.9803 0.979792V3.67299C11.9803 4.21433 11.5419 4.65279 11.0005 4.65279V4.65279Z" fill="#4165FF"/>
<path d="M11.0005 22C10.4592 22 10.0208 21.5615 10.0208 21.0202V18.3282C10.0208 17.7869 10.4592 17.3484 11.0005 17.3484C11.5419 17.3484 11.9803 17.7869 11.9803 18.3282V21.0202C11.9803 21.5615 11.5419 22 11.0005 22Z" fill="#4165FF"/>
<path d="M21.0202 11.9804H18.3282C17.7868 11.9804 17.3484 11.5419 17.3484 11.0006C17.3484 10.4593 17.7868 10.0208 18.3282 10.0208H21.0202C21.5615 10.0208 22 10.4593 22 11.0006C22 11.5419 21.5615 11.9804 21.0202 11.9804Z" fill="#4165FF"/>
<path d="M3.67299 11.9804H0.979792C0.438457 11.9804 0 11.5419 0 11.0006C0 10.4593 0.438457 10.0208 0.979792 10.0208H3.67299C4.21433 10.0208 4.65279 10.4593 4.65279 11.0006C4.65279 11.5419 4.21433 11.9804 3.67299 11.9804V11.9804Z" fill="#4165FF"/>
<path d="M10.9995 5.52112C14.0209 5.52112 16.4777 7.97918 16.4777 10.9994C16.4777 14.0196 14.0197 16.4776 10.9995 16.4776C7.97927 16.4776 5.52122 14.0196 5.52122 10.9994C5.52122 7.97918 7.97927 5.52112 10.9995 5.52112M10.9995 3.52847C6.87333 3.52847 3.52856 6.87324 3.52856 10.9994C3.52856 15.1255 6.87333 18.4703 10.9995 18.4703C15.1256 18.4703 18.4704 15.1255 18.4704 10.9994C18.4704 6.87324 15.1256 3.52847 10.9995 3.52847V3.52847Z" fill="#596168"/>
</g>
</g>
<defs>
<clipPath id="clip0_1471_5109">
<rect width="22" height="22" fill="white"/>
</clipPath>
<clipPath id="clip1_1471_5109">
<rect width="22" height="22" fill="white"/>
</clipPath>
</defs>
</svg>
