<svg width="24" height="25" viewBox="0 0 24 25" fill="none" xmlns="http://www.w3.org/2000/svg">
<g clip-path="url(#clip0_1325_8239)">
<path d="M12.0522 13.3201C9.93774 13.3201 8.20776 11.588 8.20776 9.47107C8.20776 7.35412 9.93774 5.62207 12.0522 5.62207C14.1666 5.62207 15.8966 7.35412 15.8966 9.47107C15.8966 11.588 14.1666 13.3201 12.0522 13.3201ZM12.0522 7.8215C11.146 7.8215 10.4046 8.56381 10.4046 9.47107C10.4046 10.3783 11.146 11.1206 12.0522 11.1206C12.9583 11.1206 13.6998 10.3783 13.6998 9.47107C13.6998 8.56381 12.9583 7.8215 12.0522 7.8215Z" fill="#4165FF"/>
<path d="M12.0521 2.19943C16.1711 2.19943 19.5075 5.55356 19.5075 9.66375C19.5075 11.8632 18.464 14.0351 16.1162 16.7294L12.0658 21.252C11.4617 20.5647 10.9399 19.9873 10.3908 19.3962C9.74544 18.6952 9.00402 17.8841 8.00173 16.7432C5.64018 14.0489 4.5967 11.8632 4.5967 9.66375C4.5967 5.53982 7.94681 2.19943 12.0521 2.19943M12.0521 0C6.72485 0 2.3999 4.33013 2.3999 9.66375C2.3999 12.9766 4.25345 15.7947 6.35414 18.1865C8.56466 20.7159 9.42965 21.5132 11.1734 23.5614C11.2145 23.6164 11.2557 23.6576 11.2969 23.7126C11.4891 23.9051 11.7637 24.0288 12.0658 24.0288C12.3679 24.0288 12.6287 23.9051 12.8347 23.7126L12.9308 23.6026L17.7775 18.1865C19.8782 15.7809 21.7317 12.9766 21.7317 9.66375C21.718 4.33013 17.393 0 12.0521 0V0Z" fill="#596168"/>
</g>
<defs>
<clipPath id="clip0_1325_8239">
<rect width="19.3181" height="24.0288" fill="white" transform="translate(2.3999)"/>
</clipPath>
</defs>
</svg>
