<svg width="22" height="22" viewBox="0 0 22 22" fill="none" xmlns="http://www.w3.org/2000/svg">
<g clip-path="url(#clip0_1361_3796)">
<path d="M11 22C17.0751 22 22 17.0751 22 11C22 4.92487 17.0751 0 11 0C4.92487 0 0 4.92487 0 11C0 17.0751 4.92487 22 11 22Z" fill="#F03B4C"/>
<path d="M17.8347 11C17.8347 10.692 17.7173 10.3987 17.4973 10.164C17.2773 9.944 16.984 9.82667 16.6613 9.82667H5.35333C5.04533 9.82667 4.752 9.944 4.51733 10.164C4.06266 10.6187 4.06266 11.3667 4.51733 11.8213C4.752 12.056 5.04533 12.1587 5.33866 12.1587H16.6613C16.9547 12.1587 17.2627 12.0413 17.4827 11.8213C17.7027 11.6013 17.82 11.308 17.82 10.9853L17.8347 11Z" fill="white"/>
</g>
<defs>
<clipPath id="clip0_1361_3796">
<rect width="22" height="22" fill="white"/>
</clipPath>
</defs>
</svg>
