<svg width="40" height="40" viewBox="0 0 40 40" fill="none" xmlns="http://www.w3.org/2000/svg">
<g clip-path="url(#clip0_1008_2151)">
<path d="M19.7957 40C16.8924 40 14.5269 37.6344 14.5269 34.7312H17.5376C17.5376 35.9785 18.5484 36.9893 19.7957 36.9893C21.043 36.9893 22.0537 35.9785 22.0537 34.7312H25.0645C25.0645 37.6344 22.6989 40 19.7957 40Z" fill="#4165FF"/>
<path d="M36.4839 24.9247C36.4194 24.5161 36.3978 24.3656 32.5699 12.9032C32.0968 11.4839 31.6882 10.2581 31.6452 10.1075C30.6344 6.94624 28.1398 4.36559 24.9355 3.03226C23.9892 1.22581 22.0323 0 19.7957 0C17.5591 0 15.6022 1.22581 14.6559 3.03226C11.4301 4.3871 8.95699 6.94624 7.94624 10.1075C7.90323 10.2796 7.49462 11.4839 7.02151 12.9032C3.19355 24.3871 3.17204 24.5161 3.08602 24.9247C3.02151 25.2903 3 25.6774 3 26.0645C3 30.1075 6.54839 33.4194 10.8925 33.4194H28.6774C33.0215 33.4194 36.5699 30.129 36.5699 26.0645C36.5699 22 36.5484 25.3118 36.4839 24.9247V24.9247ZM28.6989 29.9785H19.7957H10.8925C8.44086 29.9785 6.44086 28.2366 6.44086 26.0645C6.44086 23.8925 6.44086 25.6774 6.48387 25.4839C6.54839 25.0968 11 11.8065 11.2151 11.1398C12.0538 8.47312 14.4624 6.4086 17.5161 5.69892C17.5161 5.6129 17.5161 5.52688 17.5161 5.44086C17.5161 5.22581 17.5591 5.01075 17.6237 4.8172C17.8817 3.87097 18.7634 3.16129 19.7957 3.16129C20.828 3.16129 21.7097 3.87097 21.9677 4.8172C22.0323 5.01075 22.0753 5.22581 22.0753 5.44086C22.0753 5.65591 22.0753 5.6129 22.0753 5.69892C25.129 6.4086 27.5161 8.49462 28.3763 11.1398C28.5914 11.8065 33.043 25.0968 33.1075 25.4839C33.129 25.6774 33.1505 25.871 33.1505 26.0645C33.1505 28.2151 31.1505 29.9785 28.6989 29.9785Z" fill="#596168"/>
</g>
<defs>
<clipPath id="clip0_1008_2151">
<rect width="33.5699" height="40" fill="white" transform="translate(3)"/>
</clipPath>
</defs>
</svg>
