<svg width="40" height="40" viewBox="0 0 40 40" fill="none" xmlns="http://www.w3.org/2000/svg">
<g clip-path="url(#clip0_965_2658)">
<path d="M7.39347 39.1588C5.44549 39.1588 3.85169 37.565 3.85169 35.617V30.5478H3.54178C1.5938 30.5478 0 28.954 0 27.006V7.74759C0 5.79961 1.5938 4.20581 3.54178 4.20581H35.7941V27.006C35.7941 28.6662 34.6431 30.083 33.0935 30.4593L33.005 30.5478H32.2745H16.3807L10.1384 37.897C9.47427 38.6939 8.47814 39.1588 7.41561 39.1588H7.39347ZM3.54178 7.74759V27.006H7.39347V35.617C7.39347 35.5948 14.6763 27.006 14.6763 27.006H32.2302V7.74759H3.54178Z" fill="#596168"/>
<path d="M34.0229 10.404C36.468 10.404 38.4502 8.42188 38.4502 5.97679C38.4502 3.5317 36.468 1.54956 34.0229 1.54956C31.5778 1.54956 29.5957 3.5317 29.5957 5.97679C29.5957 8.42188 31.5778 10.404 34.0229 10.404Z" fill="white"/>
<path d="M34.0231 11.9535C30.7249 11.9535 28.0464 9.27504 28.0464 5.97676C28.0464 2.67847 30.7249 0 34.0231 0C37.3214 0 39.9999 2.67847 39.9999 5.97676C39.9999 9.27504 37.3214 11.9535 34.0231 11.9535ZM34.0231 3.09906C32.4293 3.09906 31.1454 4.38296 31.1454 5.97676C31.1454 7.57056 32.4293 8.85445 34.0231 8.85445C35.6169 8.85445 36.9008 7.57056 36.9008 5.97676C36.9008 4.38296 35.6169 3.09906 34.0231 3.09906Z" fill="#4165FF"/>
</g>
<defs>
<clipPath id="clip0_965_2658">
<rect width="40" height="39.1588" fill="white"/>
</clipPath>
</defs>
</svg>
