<svg width="26" height="26" viewBox="0 0 26 26" fill="none" xmlns="http://www.w3.org/2000/svg">
<g clip-path="url(#clip0_916_2561)">
<path d="M8.42983 20.1399C7.64005 20.1399 6.9998 20.7802 6.9998 21.57C6.9998 22.3598 7.64005 23 8.42983 23C9.21962 23 9.85986 22.3598 9.85986 21.57C9.85986 20.7802 9.21962 20.1399 8.42983 20.1399Z" fill="#DADCE0"/>
<path d="M7.41025 20.5687L9.43262 22.5911L16.9876 15.0361L14.9652 13.0137L7.41025 20.5687Z" fill="#DADCE0"/>
<path d="M8.42983 3.00005C7.64005 3.00005 6.9998 3.64029 6.9998 4.43008C6.9998 5.21986 7.64005 5.86011 8.42983 5.86011C9.21962 5.86011 9.85986 5.21986 9.85986 4.43008C9.85986 3.64029 9.21962 3.00005 8.42983 3.00005Z" fill="#DADCE0"/>
<path d="M9.42374 3.42319L7.40137 5.44556L14.9564 13.0005L16.9787 10.9782L9.42374 3.42319Z" fill="#DADCE0"/>
<path d="M14.9625 13.0147L16.9849 15.0371L19.0072 13.0147L16.9849 10.9924L14.9625 13.0147Z" fill="#DADCE0"/>
</g>
<defs>
<clipPath id="clip0_916_2561">
<rect width="12.0123" height="20" fill="white" transform="translate(19.0122 23) rotate(-180)"/>
</clipPath>
</defs>
</svg>
