<svg width="18" height="18" viewBox="0 0 18 18" fill="none" xmlns="http://www.w3.org/2000/svg">
<path d="M13.0706 11.9811L11.9814 13.0703L16.6883 17.7772L17.7775 16.688L13.0706 11.9811Z" fill="#4165FF"/>
<path d="M17.2296 18.0001C17.655 18.0001 17.9998 17.6552 17.9998 17.2299C17.9998 16.8045 17.655 16.4597 17.2296 16.4597C16.8043 16.4597 16.4595 16.8045 16.4595 17.2299C16.4595 17.6552 16.8043 18.0001 17.2296 18.0001Z" fill="#4165FF"/>
<path d="M6.99755 1.54034C10.0122 1.54034 12.4548 3.99389 12.4548 6.99755C12.4548 10.0012 10.0012 12.4548 6.99755 12.4548C3.99389 12.4548 1.54034 10.0122 1.54034 6.99755C1.54034 3.98289 3.99389 1.54034 6.99755 1.54034ZM6.99755 0C3.1357 0 0 3.1357 0 6.99755C0 10.8594 3.1357 13.9951 6.99755 13.9951C10.8594 13.9951 13.9951 10.8594 13.9951 6.99755C13.9951 3.1357 10.8704 0 6.99755 0Z" fill="#596168"/>
</svg>
