<svg width="26" height="26" viewBox="0 0 26 26" fill="none" xmlns="http://www.w3.org/2000/svg">
<g clip-path="url(#clip0_900_540)">
<path d="M24.5101 14.9592C25.2991 14.9592 25.9387 14.3196 25.9387 13.5306C25.9387 12.7416 25.2991 12.1021 24.5101 12.1021C23.7211 12.1021 23.0815 12.7416 23.0815 13.5306C23.0815 14.3196 23.7211 14.9592 24.5101 14.9592Z" fill="#F03B4C"/>
<path d="M23.1018 13.5305H25.959V2.85705H23.1018V13.5305Z" fill="#F03B4C"/>
<path d="M12.4081 2.85714C13.197 2.85714 13.8366 2.21755 13.8366 1.42857C13.8366 0.639593 13.197 0 12.4081 0C11.6191 0 10.9795 0.639593 10.9795 1.42857C10.9795 2.21755 11.6191 2.85714 12.4081 2.85714Z" fill="#F03B4C"/>
<path d="M12.4082 3.48091e-05V2.85718L23.0817 2.85718V3.48091e-05L12.4082 3.48091e-05Z" fill="#F03B4C"/>
<path d="M23.1018 2.85718L25.959 2.85718V3.48091e-05L23.1018 3.48091e-05V2.85718Z" fill="#F03B4C"/>
<path d="M13.5306 26C14.3196 26 14.9592 25.3604 14.9592 24.5714C14.9592 23.7824 14.3196 23.1428 13.5306 23.1428C12.7416 23.1428 12.1021 23.7824 12.1021 24.5714C12.1021 25.3604 12.7416 26 13.5306 26Z" fill="#F03B4C"/>
<path d="M12.1018 24.5715H14.959L14.959 13.8981H12.1018L12.1018 24.5715Z" fill="#F03B4C"/>
<path d="M1.42857 13.8979C2.21755 13.8979 2.85714 13.2583 2.85714 12.4693C2.85714 11.6804 2.21755 11.0408 1.42857 11.0408C0.639593 11.0408 0 11.6804 0 12.4693C0 13.2583 0.639593 13.8979 1.42857 13.8979Z" fill="#F03B4C"/>
<path d="M1.42871 11.0408L1.42871 13.8979H12.1022V11.0408H1.42871Z" fill="#F03B4C"/>
<path d="M12.1018 13.8979H14.959V11.0408H12.1018V13.8979Z" fill="#F03B4C"/>
</g>
<defs>
<clipPath id="clip0_900_540">
<rect width="25.9388" height="26" fill="white"/>
</clipPath>
</defs>
</svg>
