<svg width="27" height="26" viewBox="0 0 27 26" fill="none" xmlns="http://www.w3.org/2000/svg">
<g clip-path="url(#clip0_900_541)">
<path d="M1.42857 13.8979C2.21755 13.8979 2.85714 13.2583 2.85714 12.4693C2.85714 11.6804 2.21755 11.0408 1.42857 11.0408C0.639593 11.0408 0 11.6804 0 12.4693C0 13.2583 0.639593 13.8979 1.42857 13.8979Z" fill="#4165FF"/>
<path d="M2.85714 12.4695H0V23.143H2.85714V12.4695Z" fill="#4165FF"/>
<path d="M13.5306 26C14.3196 26 14.9592 25.3604 14.9592 24.5714C14.9592 23.7824 14.3196 23.1428 13.5306 23.1428C12.7416 23.1428 12.1021 23.7824 12.1021 24.5714C12.1021 25.3604 12.7416 26 13.5306 26Z" fill="#4165FF"/>
<path d="M13.5308 26.0205V23.1633H2.85729V26.0205H13.5308Z" fill="#4165FF"/>
<path d="M2.85714 23.1428H0V26H2.85714V23.1428Z" fill="#4165FF"/>
<path d="M12.4081 2.85714C13.197 2.85714 13.8366 2.21755 13.8366 1.42857C13.8366 0.639593 13.197 0 12.4081 0C11.6191 0 10.9795 0.639593 10.9795 1.42857C10.9795 2.21755 11.6191 2.85714 12.4081 2.85714Z" fill="#4165FF"/>
<path d="M13.8366 1.42847H10.9795V12.1019H13.8366V1.42847Z" fill="#4165FF"/>
<path d="M24.5101 14.9592C25.2991 14.9592 25.9387 14.3196 25.9387 13.5306C25.9387 12.7416 25.2991 12.1021 24.5101 12.1021C23.7211 12.1021 23.0815 12.7416 23.0815 13.5306C23.0815 14.3196 23.7211 14.9592 24.5101 14.9592Z" fill="#4165FF"/>
<path d="M24.5103 14.9592V12.1021H13.8368V14.9592H24.5103Z" fill="#4165FF"/>
<path d="M13.8366 12.1021H10.9795V14.9592H13.8366V12.1021Z" fill="#4165FF"/>
</g>
<defs>
<clipPath id="clip0_900_541">
<rect width="25.9388" height="26" fill="white"/>
</clipPath>
</defs>
</svg>
