<svg width="99" height="30" viewBox="0 0 99 30" fill="none" xmlns="http://www.w3.org/2000/svg">
<g clip-path="url(#clip0_1303_3765)">
<path d="M19.4874 21.8087H3.71735V19.1214H10.0572V17.1748C10.4457 17.2696 10.9755 17.3643 11.6024 17.3643C12.2293 17.3643 12.7591 17.2696 13.1564 17.1748V19.1214H19.4962V21.8087H19.4874Z" fill="#4165FF"/>
<path d="M7.12568 14.5048C7.46121 14.9613 7.91153 15.3489 8.41483 15.659C8.92696 15.9863 9.45675 16.2188 10.0484 16.3653C10.4369 16.46 10.9667 16.5548 11.5936 16.5548C12.2205 16.5548 12.7503 16.46 13.1476 16.3653C13.7216 16.2188 14.269 15.9949 14.7811 15.659C15.2933 15.3489 15.7171 14.9527 16.0968 14.5048C16.4588 14.0914 16.7502 13.5918 16.9621 13.0405C17.174 12.5065 17.28 11.9467 17.28 11.3265C17.28 10.6202 17.1122 9.93977 16.812 9.30239C16.4941 8.68223 16.0879 8.14821 15.5847 7.64864C15.0725 7.19214 14.4809 6.82177 13.801 6.52892C13.1211 6.2619 12.3794 6.11548 11.6201 6.11548C10.8607 6.11548 10.119 6.2619 9.43909 6.52892C8.74154 6.82177 8.14994 7.19214 7.63781 7.64864C7.12568 8.14821 6.72834 8.68223 6.42812 9.30239C6.11025 9.93977 5.96014 10.6288 5.96014 11.3265C5.96014 11.9467 6.0661 12.5065 6.27802 13.0405C6.47227 13.6004 6.746 14.0914 7.12568 14.5048ZM9.22718 10.3877C9.3508 10.0948 9.52739 9.8278 9.77463 9.60385C10.0042 9.37991 10.2868 9.19041 10.6223 9.06983C10.9225 8.94924 11.258 8.88034 11.6201 8.88034C11.9556 8.88034 12.3 8.94063 12.6355 9.06983C12.9357 9.19041 13.2094 9.37991 13.439 9.60385C13.6509 9.8278 13.8452 10.1034 13.9865 10.3877C14.1101 10.6977 14.1807 11.0078 14.1807 11.3179C14.1807 12.0242 13.9246 12.6013 13.439 13.075C12.9534 13.5487 12.3353 13.7985 11.6201 13.7985C11.258 13.7985 10.9225 13.7382 10.6223 13.609C10.2868 13.4884 10.0042 13.3162 9.77463 13.075C9.51856 12.8683 9.3508 12.6013 9.22718 12.2912C9.07707 11.9983 9.01526 11.671 9.01526 11.3179C9.01526 11.0078 9.07707 10.6977 9.22718 10.3877Z" fill="#4165FF"/>
<path d="M40.4759 18.2429H24.6882V20.7408H40.4759V18.2429Z" fill="#4165FF"/>
<path d="M38.5863 17.3385H26.7632V10.4738H29.7477V14.5909H38.5863V17.3385Z" fill="#4165FF"/>
<path d="M39.0985 29.4919H26.9928V24.41H35.0279V23.7468H27.5491V21.5332H38.0389V26.6236H29.9861V27.261H39.0985V29.4919Z" fill="#4165FF"/>
<path d="M57.3056 18.286V12.3342H53.809V17.9156H44.1668V6.02928H53.809V9.60379H57.3056V2.6615H60.396V18.286H57.3056ZM47.1954 15.3919H50.8157V8.55297H47.1954V15.3919Z" fill="#4165FF"/>
<path d="M69.7997 21.4987C69.0757 21.4987 68.4046 21.3781 67.7689 21.0852C67.1331 20.8354 66.5857 20.4651 66.1354 19.9913C65.6497 19.5607 65.27 19.018 65.014 18.3979C64.7138 17.7777 64.5901 17.1145 64.5901 16.391C64.5901 15.6675 64.7138 15.0301 65.014 14.4099C65.27 13.7898 65.6497 13.2558 66.1354 12.7734C66.5769 12.3428 67.1331 11.9896 67.7689 11.6968C68.4046 11.447 69.0845 11.3006 69.7997 11.3006C70.515 11.3006 71.2213 11.447 71.8571 11.6968C72.4928 11.9896 73.0403 12.3341 73.5083 12.7734C73.9763 13.2471 74.3383 13.7898 74.6297 14.4099C74.8857 15.0301 75.0358 15.6933 75.0358 16.391C75.0358 17.0887 74.8857 17.7777 74.6297 18.3979C74.3294 19.018 73.9763 19.5521 73.5083 19.9913C73.0403 20.4651 72.4928 20.8354 71.8571 21.0852C71.2213 21.3781 70.5238 21.4987 69.7997 21.4987ZM69.7997 13.9534C69.4642 13.9534 69.164 14.0137 68.8903 14.1429C68.5901 14.2635 68.3605 14.453 68.1486 14.677C67.9367 14.9009 67.7689 15.1765 67.6629 15.4608C67.5393 15.7708 67.4687 16.0809 67.4687 16.391C67.4687 16.7441 67.5305 17.0542 67.6629 17.3384C67.7689 17.6485 67.9367 17.9155 68.1486 18.1223C68.3605 18.372 68.5901 18.5529 68.8903 18.6821C69.164 18.8027 69.4642 18.8716 69.7997 18.8716C70.1176 18.8716 70.4178 18.8113 70.7092 18.6821C70.9829 18.5615 71.239 18.372 71.4509 18.1223C71.6628 17.9155 71.8306 17.6485 71.9631 17.3384C72.069 17.0456 72.1308 16.7355 72.1308 16.391C72.1308 16.0809 72.069 15.7708 71.9631 15.4608C71.8394 15.1679 71.6628 14.9009 71.4509 14.677C71.239 14.453 70.9829 14.2635 70.7092 14.1429C70.409 14.0223 70.1176 13.9534 69.7997 13.9534ZM76.8371 22.6356H79.8481V29.9913H69.0139V22.4289H72.1043V24.2894H76.8283V22.6356H76.8371ZM76.7753 26.503H72.0955V27.8036H76.7753V26.503ZM80.3337 21.7054H77.2786V10.8527H80.3337V21.7054Z" fill="#4165FF"/>
<path d="M83.1505 14.2204H93.4549V16.9078H89.5786L94.2849 24.2291L91.8037 25.9689L88.3071 20.1808L84.7928 25.9689L82.3381 24.2291L87.0179 16.9078H83.1593V14.2204H83.1505ZM99 26.4771H95.9096V10.8527H99V26.4857V26.4771Z" fill="#4165FF"/>
<path d="M12.9268 0H10.2779V4.6081H12.9268V0Z" fill="#4165FF"/>
<path d="M4.72396 9.776H0V12.36H4.72396V9.776Z" fill="#4165FF"/>
<path d="M3.92857 2.06787L2.05548 3.89502L5.39582 7.15344L7.26891 5.32629L3.92857 2.06787Z" fill="#4165FF"/>
<path d="M23.2048 9.776H18.4808V12.36H23.2048V9.776Z" fill="#4165FF"/>
<path d="M19.2752 2.07166L15.9348 5.33008L17.8079 7.15723L21.1482 3.89881L19.2752 2.07166Z" fill="#4165FF"/>
</g>
<defs>
<clipPath id="clip0_1303_3765">
<rect width="99" height="30" fill="white"/>
</clipPath>
</defs>
</svg>
