<svg width="26" height="26" viewBox="0 0 26 26" fill="none" xmlns="http://www.w3.org/2000/svg">
<path d="M20.1046 17.7779C20.1046 17.2071 20.5672 16.7445 21.138 16.7445C21.7087 16.7445 22.1714 17.2071 22.1714 17.7779C22.1714 18.3486 21.7087 18.8113 21.138 18.8113C20.5672 18.8113 20.1046 18.3486 20.1046 17.7779Z" fill="#DADCE0" stroke="#DADCE0"/>
<mask id="path-2-inside-1_979_2595" fill="white">
<path d="M21.1381 15.9158C21.62 15.9158 22.102 16.091 22.4525 16.4634C23.1754 17.1863 23.1754 18.3692 22.4525 19.0921C21.7296 19.815 21.6419 19.6398 21.1381 19.6398C20.6343 19.6398 20.1743 19.4426 19.8238 19.0921C19.4733 18.7416 19.2761 18.2816 19.2761 17.7778C19.2761 17.2739 19.4733 16.8139 19.8238 16.4634C20.1743 16.1129 20.6562 15.9158 21.1381 15.9158ZM21.9924 16.9234C21.5324 16.4634 20.7657 16.4634 20.2838 16.9234C20.0647 17.1425 19.9333 17.4492 19.9333 17.7778C19.9333 18.1064 20.0647 18.3911 20.2838 18.6321C20.5028 18.8731 20.8095 18.9826 21.1381 18.9826C21.4667 18.9826 21.7515 18.8512 21.9924 18.6321C22.4525 18.1721 22.4525 17.4054 21.9924 16.9234Z"/>
</mask>
<path d="M21.1381 15.9158C21.62 15.9158 22.102 16.091 22.4525 16.4634C23.1754 17.1863 23.1754 18.3692 22.4525 19.0921C21.7296 19.815 21.6419 19.6398 21.1381 19.6398C20.6343 19.6398 20.1743 19.4426 19.8238 19.0921C19.4733 18.7416 19.2761 18.2816 19.2761 17.7778C19.2761 17.2739 19.4733 16.8139 19.8238 16.4634C20.1743 16.1129 20.6562 15.9158 21.1381 15.9158ZM21.9924 16.9234C21.5324 16.4634 20.7657 16.4634 20.2838 16.9234C20.0647 17.1425 19.9333 17.4492 19.9333 17.7778C19.9333 18.1064 20.0647 18.3911 20.2838 18.6321C20.5028 18.8731 20.8095 18.9826 21.1381 18.9826C21.4667 18.9826 21.7515 18.8512 21.9924 18.6321C22.4525 18.1721 22.4525 17.4054 21.9924 16.9234Z" fill="#DADCE0"/>
<path d="M22.4525 16.4634L21.7243 17.1488L21.7346 17.1598L21.7454 17.1705L22.4525 16.4634ZM20.2838 16.9234L19.5933 16.2001L19.5849 16.2081L19.5767 16.2163L20.2838 16.9234ZM21.9924 18.6321L22.6651 19.372L22.6827 19.356L22.6995 19.3392L21.9924 18.6321ZM21.1381 16.9158C21.382 16.9158 21.5871 17.0031 21.7243 17.1488L23.1807 15.7781C22.6168 15.179 21.858 14.9158 21.1381 14.9158L21.1381 16.9158ZM21.7454 17.1705C22.0777 17.5029 22.0777 18.0526 21.7454 18.385L23.1596 19.7992C24.273 18.6858 24.273 16.8697 23.1596 15.7563L21.7454 17.1705ZM21.7454 18.385C21.581 18.5494 21.4826 18.632 21.4266 18.6726C21.3767 18.7087 21.3929 18.6874 21.4564 18.6705C21.5205 18.6535 21.5635 18.6604 21.5111 18.6575C21.4817 18.6558 21.3004 18.6398 21.1381 18.6398L21.1381 20.6398C21.2278 20.6398 21.2463 20.6456 21.3977 20.6542C21.526 20.6615 21.7306 20.6671 21.9699 20.6035C22.4272 20.482 22.7945 20.1643 23.1596 19.7992L21.7454 18.385ZM21.1381 18.6398C20.9063 18.6398 20.6987 18.5528 20.5309 18.385L19.1167 19.7992C19.6498 20.3324 20.3623 20.6398 21.1381 20.6398L21.1381 18.6398ZM20.5309 18.385C20.3631 18.2172 20.2761 18.0096 20.2761 17.7778L18.2761 17.7778C18.2761 18.5536 18.5835 19.266 19.1167 19.7992L20.5309 18.385ZM20.2761 17.7778C20.2761 17.5459 20.3631 17.3383 20.5309 17.1705L19.1167 15.7563C18.5835 16.2895 18.2761 17.0019 18.2761 17.7778L20.2761 17.7778ZM20.5309 17.1705C20.6942 17.0072 20.9219 16.9158 21.1381 16.9158L21.1381 14.9158C20.3904 14.9158 19.6543 15.2187 19.1167 15.7563L20.5309 17.1705ZM22.6995 16.2163C21.8402 15.357 20.4524 15.38 19.5933 16.2001L20.9743 17.6468C21.0212 17.602 21.0827 17.5784 21.1463 17.5784C21.2096 17.5784 21.2559 17.6011 21.2853 17.6305L22.6995 16.2163ZM19.5767 16.2163C19.1709 16.6222 18.9333 17.1829 18.9333 17.7778L20.9333 17.7778C20.9333 17.7155 20.9586 17.6628 20.9909 17.6305L19.5767 16.2163ZM18.9333 17.7778C18.9333 18.3981 19.1888 18.9142 19.5438 19.3048L21.0237 17.9594C20.979 17.9103 20.9577 17.8726 20.9474 17.8482C20.938 17.826 20.9333 17.8049 20.9333 17.7778L18.9333 17.7778ZM19.5438 19.3048C19.9892 19.7947 20.5875 19.9826 21.1381 19.9826L21.1381 17.9826C21.0839 17.9826 21.0521 17.9735 21.0382 17.968C21.027 17.9636 21.025 17.9608 21.0237 17.9594L19.5438 19.3048ZM21.1381 19.9826C21.7584 19.9826 22.2746 19.7271 22.6651 19.372L21.3198 17.8922C21.2706 17.9368 21.2329 17.9582 21.2085 17.9685C21.1863 17.9779 21.1653 17.9826 21.1381 17.9826L21.1381 19.9826ZM22.6995 19.3392C23.5589 18.4798 23.5358 17.0921 22.7158 16.233L21.2691 17.6139C21.3138 17.6608 21.3375 17.7224 21.3375 17.786C21.3375 17.8493 21.3147 17.8956 21.2853 17.925L22.6995 19.3392Z" fill="#DADCE0" mask="url(#path-2-inside-1_979_2595)"/>
<path d="M15.1817 10.3575L21.5224 16.6982L20.0609 18.1597L13.7202 11.819L15.1817 10.3575Z" fill="#DADCE0" stroke="#DADCE0"/>
<mask id="path-5-inside-2_979_2595" fill="white">
<path d="M15.1797 9.16871L22.6934 16.6824L20.0647 19.333L12.5291 11.8193L15.1578 9.19062L15.1797 9.16871ZM21.7514 16.6824L15.1578 10.0888L13.4491 11.7974L20.0647 18.3911L21.7733 16.6824L21.7514 16.6824Z"/>
</mask>
<path d="M15.1797 9.16871L22.6934 16.6824L20.0647 19.333L12.5291 11.8193L15.1578 9.19062L15.1797 9.16871ZM21.7514 16.6824L15.1578 10.0888L13.4491 11.7974L20.0647 18.3911L21.7733 16.6824L21.7514 16.6824Z" fill="#DADCE0"/>
<path d="M15.1797 9.16871L15.8868 8.46161L15.1797 7.7545L14.4726 8.46161L15.1797 9.16871ZM22.6934 16.6824L23.4034 17.3866L24.1046 16.6795L23.4005 15.9753L22.6934 16.6824ZM20.0647 19.333L19.3586 20.0411L20.0686 20.7491L20.7747 20.0372L20.0647 19.333ZM12.5291 11.8193L11.822 11.1122L11.1138 11.8203L11.823 12.5275L12.5291 11.8193ZM21.7514 16.6824L21.0443 17.3895L21.3372 17.6824L21.7514 17.6824L21.7514 16.6824ZM15.1578 10.0888L15.8649 9.38165L15.1578 8.67455L14.4507 9.38165L15.1578 10.0888ZM13.4491 11.7974L12.742 11.0903L12.0337 11.7986L12.7432 12.5057L13.4491 11.7974ZM20.0647 18.3911L19.3587 19.0993L20.0658 19.8041L20.7718 19.0982L20.0647 18.3911ZM21.7733 16.6824L22.4804 17.3895L24.1875 15.6824L21.7733 15.6824L21.7733 16.6824ZM14.4726 9.87582L21.9863 17.3895L23.4005 15.9753L15.8868 8.46161L14.4726 9.87582ZM21.9833 15.9782L19.3546 18.6288L20.7747 20.0372L23.4034 17.3866L21.9833 15.9782ZM20.7707 18.6249L13.2351 11.1112L11.823 12.5275L19.3586 20.0411L20.7707 18.6249ZM13.2362 12.5264L15.8649 9.89773L14.4507 8.48351L11.822 11.1122L13.2362 12.5264ZM15.8649 9.89773L15.8868 9.87582L14.4726 8.46161L14.4507 8.48351L15.8649 9.89773ZM22.4585 15.9753L15.8649 9.38165L14.4507 10.7959L21.0443 17.3895L22.4585 15.9753ZM14.4507 9.38165L12.742 11.0903L14.1562 12.5045L15.8649 10.7959L14.4507 9.38165ZM12.7432 12.5057L19.3587 19.0993L20.7706 17.6828L14.155 11.0891L12.7432 12.5057ZM20.7718 19.0982L22.4804 17.3895L21.0662 15.9753L19.3576 17.684L20.7718 19.0982ZM21.7733 15.6824L21.7514 15.6824L21.7514 17.6824L21.7733 17.6824L21.7733 15.6824Z" fill="#DADCE0" mask="url(#path-5-inside-2_979_2595)"/>
<path d="M3.8287 17.7779C3.8287 17.2071 4.29137 16.7445 4.8621 16.7445C5.43284 16.7445 5.89551 17.2071 5.89551 17.7779C5.89551 18.3486 5.43284 18.8113 4.8621 18.8113C4.29137 18.8113 3.8287 18.3486 3.8287 17.7779Z" fill="#DADCE0" stroke="#DADCE0"/>
<mask id="path-8-inside-3_979_2595" fill="white">
<path d="M4.86223 15.9158C5.34416 15.9158 5.82609 16.091 6.17658 16.4634C6.89947 17.1863 6.89947 18.3692 6.17658 19.0921C5.45369 19.815 5.36607 19.6398 4.86223 19.6398C4.3584 19.6398 3.89838 19.4426 3.54788 19.0921C2.82499 18.3692 2.82499 17.1863 3.54789 16.4634C3.92028 16.091 4.38031 15.9158 4.86223 15.9158ZM4.86223 18.9826C5.19082 18.9826 5.4975 18.8512 5.71656 18.6321C6.17658 18.1721 6.17658 17.4054 5.71656 16.9234C5.25654 16.4634 4.48984 16.4634 4.00791 16.9234C3.54789 17.3835 3.54789 18.1502 4.00791 18.6321C4.22697 18.8512 4.53365 18.9826 4.86223 18.9826Z"/>
</mask>
<path d="M4.86223 15.9158C5.34416 15.9158 5.82609 16.091 6.17658 16.4634C6.89947 17.1863 6.89947 18.3692 6.17658 19.0921C5.45369 19.815 5.36607 19.6398 4.86223 19.6398C4.3584 19.6398 3.89838 19.4426 3.54788 19.0921C2.82499 18.3692 2.82499 17.1863 3.54789 16.4634C3.92028 16.091 4.38031 15.9158 4.86223 15.9158ZM4.86223 18.9826C5.19082 18.9826 5.4975 18.8512 5.71656 18.6321C6.17658 18.1721 6.17658 17.4054 5.71656 16.9234C5.25654 16.4634 4.48984 16.4634 4.00791 16.9234C3.54789 17.3835 3.54789 18.1502 4.00791 18.6321C4.22697 18.8512 4.53365 18.9826 4.86223 18.9826Z" fill="#DADCE0"/>
<path d="M6.17658 16.4634L5.44838 17.1488L5.45876 17.1598L5.46947 17.1705L6.17658 16.4634ZM5.71656 16.9234L6.43992 16.233L6.43189 16.2246L6.42367 16.2163L5.71656 16.9234ZM4.00791 16.9234L3.31743 16.2001L3.30902 16.2081L3.3008 16.2163L4.00791 16.9234ZM4.00791 18.6321L3.28455 19.3226L3.29258 19.331L3.3008 19.3392L4.00791 18.6321ZM4.86223 16.9158C5.10616 16.9158 5.31125 17.0031 5.44838 17.1488L6.90478 15.7781C6.34093 15.179 5.58217 14.9158 4.86223 14.9158L4.86223 16.9158ZM5.46947 17.1705C5.80184 17.5029 5.80184 18.0526 5.46947 18.385L6.88369 19.7992C7.9971 18.6858 7.9971 16.8697 6.88369 15.7563L5.46947 17.1705ZM5.46947 18.385C5.30513 18.5494 5.20677 18.632 5.15075 18.6726C5.10081 18.7087 5.11705 18.6874 5.18054 18.6705C5.24457 18.6535 5.28761 18.6604 5.23522 18.6575C5.20581 18.6558 5.02449 18.6398 4.86223 18.6398L4.86223 20.6398C4.95189 20.6398 4.97046 20.6456 5.12177 20.6542C5.25011 20.6615 5.4547 20.6671 5.69398 20.6035C6.15136 20.482 6.5186 20.1643 6.88369 19.7992L5.46947 18.385ZM4.86223 18.6398C4.63039 18.6398 4.42279 18.5528 4.25499 18.385L2.84078 19.7992C3.37396 20.3324 4.08641 20.6398 4.86223 20.6398L4.86223 18.6398ZM4.25499 18.385C3.92262 18.0526 3.92262 17.5029 4.25499 17.1705L2.84078 15.7563C1.72736 16.8697 1.72736 18.6858 2.84078 19.7992L4.25499 18.385ZM4.25499 17.1705C4.43395 16.9916 4.63706 16.9158 4.86223 16.9158L4.86223 14.9158C4.12355 14.9158 3.40661 15.1905 2.84078 15.7563L4.25499 17.1705ZM4.86223 19.9826C5.45712 19.9826 6.01784 19.745 6.42367 19.3392L5.00945 17.925C4.97716 17.9573 4.92452 17.9826 4.86223 17.9826L4.86223 19.9826ZM6.42367 19.3392C7.28304 18.4798 7.25997 17.0921 6.43992 16.233L4.9932 17.6139C5.03796 17.6608 5.06158 17.7224 5.06158 17.786C5.06158 17.8493 5.03886 17.8956 5.00945 17.925L6.42367 19.3392ZM6.42367 16.2163C5.56429 15.357 4.17654 15.38 3.31743 16.2001L4.69838 17.6468C4.74528 17.602 4.80685 17.5784 4.87045 17.5784C4.93372 17.5784 4.98005 17.6011 5.00945 17.6305L6.42367 16.2163ZM3.3008 16.2163C2.44143 17.0757 2.4645 18.4635 3.28455 19.3226L4.73126 17.9416C4.6865 17.8947 4.66289 17.8331 4.66289 17.7696C4.66289 17.7063 4.68561 17.66 4.71502 17.6305L3.3008 16.2163ZM3.3008 19.3392C3.70663 19.745 4.26734 19.9826 4.86223 19.9826L4.86223 17.9826C4.79995 17.9826 4.74731 17.9573 4.71502 17.925L3.3008 19.3392Z" fill="#DADCE0" mask="url(#path-8-inside-3_979_2595)"/>
<path d="M4.51084 16.6955L10.8516 10.3548L12.313 11.8163L5.97229 18.157L4.51084 16.6955Z" fill="#DADCE0" stroke="#DADCE0"/>
<mask id="path-11-inside-4_979_2595" fill="white">
<path d="M10.8425 9.16872L13.4712 11.7974L5.9575 19.333L3.3288 16.7043L10.8425 9.16872ZM12.5511 11.7974L10.8425 10.0888L4.24885 16.6824L5.9575 18.3911L12.5511 11.7974Z"/>
</mask>
<path d="M10.8425 9.16872L13.4712 11.7974L5.9575 19.333L3.3288 16.7043L10.8425 9.16872ZM12.5511 11.7974L10.8425 10.0888L4.24885 16.6824L5.9575 18.3911L12.5511 11.7974Z" fill="#DADCE0"/>
<path d="M10.8425 9.16872L11.5496 8.46161L10.8415 7.75347L10.1344 8.46264L10.8425 9.16872ZM13.4712 11.7974L14.1793 12.5035L14.8844 11.7964L14.1783 11.0903L13.4712 11.7974ZM5.9575 19.333L5.25039 20.0401L5.95853 20.7483L6.66563 20.0391L5.9575 19.333ZM3.3288 16.7043L2.62067 15.9982L1.91562 16.7053L2.6217 17.4114L3.3288 16.7043ZM10.8425 10.0888L11.5496 9.38165L10.8425 8.67455L10.1354 9.38165L10.8425 10.0888ZM4.24885 16.6824L3.54174 15.9753L2.83464 16.6824L3.54174 17.3895L4.24885 16.6824ZM5.9575 18.3911L5.25039 19.0982L5.9575 19.8053L6.66461 19.0982L5.9575 18.3911ZM10.1354 9.87582L12.7641 12.5045L14.1783 11.0903L11.5496 8.46161L10.1354 9.87582ZM12.7631 11.0913L5.24936 18.6269L6.66563 20.0391L14.1793 12.5035L12.7631 11.0913ZM6.66461 18.6259L4.03591 15.9972L2.6217 17.4114L5.25039 20.0401L6.66461 18.6259ZM4.03694 17.4104L11.5506 9.87479L10.1344 8.46264L2.62067 15.9982L4.03694 17.4104ZM13.2583 11.0903L11.5496 9.38165L10.1354 10.7959L11.844 12.5045L13.2583 11.0903ZM10.1354 9.38165L3.54174 15.9753L4.95595 17.3895L11.5496 10.7959L10.1354 9.38165ZM3.54174 17.3895L5.25039 19.0982L6.66461 17.684L4.95595 15.9753L3.54174 17.3895ZM6.66461 19.0982L13.2583 12.5045L11.844 11.0903L5.25039 17.684L6.66461 19.0982Z" fill="#DADCE0" mask="url(#path-11-inside-4_979_2595)"/>
<path d="M14.4722 9.65321L13.0107 11.1147L11.5493 9.65321L13.0107 8.19176L14.4722 9.65321Z" fill="#DADCE0" stroke="#DADCE0"/>
<mask id="path-14-inside-5_979_2595" fill="white">
<path d="M13.011 6.99993L15.6396 9.62863L13.011 12.2573L10.3823 9.62863L13.011 6.99993ZM14.7196 9.62863L13.011 7.91998L11.3023 9.62863L13.011 11.3373L14.7196 9.62863Z"/>
</mask>
<path d="M13.011 6.99993L15.6396 9.62863L13.011 12.2573L10.3823 9.62863L13.011 6.99993ZM14.7196 9.62863L13.011 7.91998L11.3023 9.62863L13.011 11.3373L14.7196 9.62863Z" fill="#DADCE0"/>
<path d="M13.011 6.99993L13.7181 6.29282L13.011 5.58572L12.3038 6.29282L13.011 6.99993ZM15.6396 9.62863L16.3468 10.3357L17.0539 9.62863L16.3468 8.92152L15.6396 9.62863ZM13.011 12.2573L12.3038 12.9644L13.011 13.6715L13.7181 12.9644L13.011 12.2573ZM10.3823 9.62863L9.67515 8.92152L8.96804 9.62863L9.67515 10.3357L10.3823 9.62863ZM14.7196 9.62863L15.4267 10.3357L16.1338 9.62863L15.4267 8.92152L14.7196 9.62863ZM13.011 7.91998L13.7181 7.21287L13.011 6.50576L12.3038 7.21287L13.011 7.91998ZM11.3023 9.62863L10.5952 8.92152L9.88809 9.62863L10.5952 10.3357L11.3023 9.62863ZM13.011 11.3373L12.3038 12.0444L13.011 12.7515L13.7181 12.0444L13.011 11.3373ZM12.3038 7.70704L14.9325 10.3357L16.3468 8.92152L13.7181 6.29282L12.3038 7.70704ZM14.9325 8.92152L12.3038 11.5502L13.7181 12.9644L16.3468 10.3357L14.9325 8.92152ZM13.7181 11.5502L11.0894 8.92152L9.67515 10.3357L12.3038 12.9644L13.7181 11.5502ZM11.0894 10.3357L13.7181 7.70704L12.3038 6.29282L9.67515 8.92152L11.0894 10.3357ZM15.4267 8.92152L13.7181 7.21287L12.3038 8.62708L14.0125 10.3357L15.4267 8.92152ZM12.3038 7.21287L10.5952 8.92152L12.0094 10.3357L13.7181 8.62708L12.3038 7.21287ZM10.5952 10.3357L12.3038 12.0444L13.7181 10.6302L12.0094 8.92152L10.5952 10.3357ZM13.7181 12.0444L15.4267 10.3357L14.0125 8.92152L12.3038 10.6302L13.7181 12.0444Z" fill="#DADCE0" mask="url(#path-14-inside-5_979_2595)"/>
</svg>
