<svg width="26" height="26" viewBox="0 0 26 26" fill="none" xmlns="http://www.w3.org/2000/svg">
<path d="M21.138 15.6048C20.2911 15.6048 19.6046 16.2913 19.6046 17.1382C19.6046 17.9851 20.2911 18.6716 21.138 18.6716C21.9849 18.6716 22.6714 17.9851 22.6714 17.1382C22.6714 16.2913 21.9849 15.6048 21.138 15.6048Z" fill="#596168"/>
<path d="M21.1381 15.2761C21.62 15.2761 22.102 15.4514 22.4525 15.8238C23.1754 16.5467 23.1754 17.7296 22.4525 18.4525C21.7296 19.1754 21.6419 19.0001 21.1381 19.0001C20.6343 19.0001 20.1743 18.803 19.8238 18.4525C19.4733 18.102 19.2761 17.642 19.2761 17.1381C19.2761 16.6343 19.4733 16.1743 19.8238 15.8238C20.1743 15.4733 20.6562 15.2761 21.1381 15.2761ZM21.9924 16.2838C21.5324 15.8238 20.7657 15.8238 20.2838 16.2838C20.0647 16.5029 19.9333 16.8095 19.9333 17.1381C19.9333 17.4667 20.0647 17.7515 20.2838 17.9924C20.5028 18.2334 20.8095 18.3429 21.1381 18.3429C21.4667 18.3429 21.7515 18.2115 21.9924 17.9924C22.4525 17.5324 22.4525 16.7657 21.9924 16.2838Z" fill="#596168"/>
<path d="M20.0609 18.2272L22.2295 16.0586L15.1817 9.01076L13.0131 11.1793L20.0609 18.2272Z" fill="#596168"/>
<path d="M15.1797 8.52907L22.6934 16.0428L20.0647 18.6934L12.5291 11.1797L15.1578 8.55097L15.1797 8.52907ZM21.7514 16.0428L15.1578 9.44911L13.4491 11.1578L20.0647 17.7514L21.7733 16.0428L21.7514 16.0428Z" fill="#596168"/>
<path d="M4.8621 15.6048C4.01522 15.6048 3.3287 16.2913 3.3287 17.1382C3.3287 17.9851 4.01522 18.6716 4.8621 18.6716C5.70898 18.6716 6.39551 17.9851 6.39551 17.1382C6.39551 16.2913 5.70898 15.6048 4.8621 15.6048Z" fill="#596168"/>
<path d="M4.86223 15.2761C5.34416 15.2761 5.82609 15.4514 6.17658 15.8238C6.89947 16.5467 6.89947 17.7296 6.17658 18.4525C5.45369 19.1754 5.36607 19.0001 4.86223 19.0001C4.3584 19.0001 3.89838 18.803 3.54788 18.4525C2.82499 17.7296 2.82499 16.5467 3.54789 15.8238C3.92028 15.4514 4.38031 15.2761 4.86223 15.2761ZM4.86223 18.3429C5.19082 18.3429 5.4975 18.2115 5.71656 17.9924C6.17658 17.5324 6.17658 16.7657 5.71656 16.2838C5.25654 15.8238 4.48984 15.8238 4.00791 16.2838C3.54789 16.7438 3.54789 17.5105 4.00791 17.9924C4.22697 18.2115 4.53365 18.3429 4.86223 18.3429Z" fill="#596168"/>
<path d="M13.0201 11.1766L10.8516 9.00806L3.80373 16.0559L5.97229 18.2245L13.0201 11.1766Z" fill="#596168"/>
<path d="M10.8425 8.52907L13.4712 11.1578L5.9575 18.6934L3.3288 16.0647L10.8425 8.52907ZM12.5511 11.1578L10.8425 9.44911L4.24885 16.0428L5.9575 17.7514L12.5511 11.1578Z" fill="#596168"/>
<path d="M10.8422 9.01356L13.0107 11.1821L15.1793 9.01357L13.0107 6.845L10.8422 9.01356Z" fill="#596168"/>
<path d="M13.011 6.36028L15.6396 8.98898L13.011 11.6177L10.3823 8.98898L13.011 6.36028ZM14.7196 8.98898L13.011 7.28033L11.3023 8.98898L13.011 10.6976L14.7196 8.98898Z" fill="#596168"/>
</svg>
