<svg width="18" height="18" viewBox="0 0 18 18" fill="none" xmlns="http://www.w3.org/2000/svg">
<path d="M14.6342 11.233C14.0479 11.233 13.5726 11.7083 13.5726 12.2946C13.5726 12.8809 14.0479 13.3562 14.6342 13.3562C15.2205 13.3562 15.6958 12.8809 15.6958 12.2946C15.6958 11.7083 15.2205 11.233 14.6342 11.233Z" fill="#4165FF"/>
<path d="M14.6342 11.0056C14.9678 11.0056 15.3014 11.1269 15.5441 11.3847C16.0445 11.8852 16.0445 12.7041 15.5441 13.2046C15.0436 13.7051 14.983 13.5837 14.6342 13.5837C14.2853 13.5837 13.9669 13.4473 13.7242 13.2046C13.4816 12.962 13.3451 12.6435 13.3451 12.2947C13.3451 11.9459 13.4816 11.6274 13.7242 11.3847C13.9669 11.1421 14.3005 11.0056 14.6342 11.0056ZM15.2256 11.7032C14.9071 11.3847 14.3763 11.3847 14.0427 11.7032C13.891 11.8549 13.8 12.0672 13.8 12.2947C13.8 12.5222 13.891 12.7193 14.0427 12.8861C14.1944 13.0529 14.4067 13.1288 14.6342 13.1288C14.8616 13.1288 15.0588 13.0378 15.2256 12.8861C15.5441 12.5677 15.5441 12.0369 15.2256 11.7032Z" fill="#4165FF"/>
<path d="M13.8878 13.0487L15.3892 11.5474L10.5099 6.66809L9.00858 8.16941L13.8878 13.0487Z" fill="#4165FF"/>
<path d="M10.5087 6.33452L15.7104 11.5363L13.8906 13.3713L8.67363 8.16955L10.4935 6.34969L10.5087 6.33452ZM15.0583 11.5363L10.4935 6.97147L9.31059 8.15439L13.8906 12.7192L15.0735 11.5363L15.0583 11.5363Z" fill="#4165FF"/>
<path d="M3.36615 11.233C2.77985 11.233 2.30456 11.7083 2.30456 12.2946C2.30456 12.8809 2.77985 13.3562 3.36615 13.3562C3.95244 13.3562 4.42773 12.8809 4.42773 12.2946C4.42773 11.7083 3.95245 11.233 3.36615 11.233Z" fill="#4165FF"/>
<path d="M3.36609 11.0056C3.69973 11.0056 4.03337 11.1269 4.27602 11.3847C4.77648 11.8852 4.77648 12.7041 4.27602 13.2046C3.77556 13.7051 3.71489 13.5837 3.36609 13.5837C3.01728 13.5837 2.6988 13.4473 2.45615 13.2046C1.95569 12.7041 1.95569 11.8852 2.45615 11.3847C2.71397 11.1269 3.03244 11.0056 3.36609 11.0056ZM3.36609 13.1288C3.59357 13.1288 3.80589 13.0378 3.95754 12.8861C4.27602 12.5677 4.27602 12.0369 3.95754 11.7032C3.63907 11.3847 3.10827 11.3847 2.77463 11.7032C2.45615 12.0217 2.45615 12.5525 2.77463 12.8861C2.92629 13.0378 3.1386 13.1288 3.36609 13.1288Z" fill="#4165FF"/>
<path d="M9.01401 8.16757L7.5127 6.66626L2.63343 11.5455L4.13474 13.0468L9.01401 8.16757Z" fill="#4165FF"/>
<path d="M7.50631 6.33452L9.32617 8.15439L4.12439 13.3713L2.30452 11.5515L7.50631 6.33452ZM8.68922 8.15439L7.50631 6.97147L2.94147 11.5363L4.12439 12.7192L8.68922 8.15439Z" fill="#4165FF"/>
<path d="M7.50601 6.67007L9.00732 8.17139L10.5086 6.67007L9.00732 5.16876L7.50601 6.67007Z" fill="#4165FF"/>
<path d="M9.00728 4.83317L10.8271 6.65303L9.00728 8.4729L7.18741 6.65303L9.00728 4.83317ZM10.1902 6.65303L9.00728 5.47012L7.82437 6.65303L9.00728 7.83595L10.1902 6.65303Z" fill="#4165FF"/>
</svg>
