<svg width="24" height="24" viewBox="0 0 24 24" fill="none" xmlns="http://www.w3.org/2000/svg">
<g clip-path="url(#clip0_1325_8326)">
<path d="M4.02646 11.9996C4.02646 11.6806 4.05304 11.375 4.07962 11.0693H1.12945C0.611179 11.0693 0.199219 11.4813 0.199219 11.9996C0.199219 12.5178 0.611179 12.9298 1.12945 12.9298H4.07962C4.03975 12.6242 4.02646 12.3185 4.02646 11.9996Z" fill="#4165FF"/>
<path d="M4.30565 13.1293H1.12957C0.504983 13.1293 0 12.6243 0 11.9997C0 11.3751 0.504983 10.8701 1.12957 10.8701H4.30565L4.27907 11.096C4.2392 11.4017 4.22591 11.7073 4.22591 11.9997C4.22591 12.292 4.2392 12.5977 4.27907 12.9033L4.30565 13.1293ZM1.12957 11.2688C0.730897 11.2688 0.398671 11.601 0.398671 11.9997C0.398671 12.3984 0.730897 12.7306 1.12957 12.7306H3.86711C3.84053 12.4781 3.82724 12.2389 3.82724 11.9997C3.82724 11.7605 3.82724 11.5213 3.86711 11.2688H1.12957Z" fill="#4165FF"/>
<path d="M3.6546 4.96948L5.74098 7.05586C6.12636 6.56417 6.5649 6.12563 7.05659 5.74025L4.97022 3.65387C4.61141 3.29506 4.01341 3.29506 3.6546 3.65387C3.2958 4.01267 3.2958 4.61068 3.6546 4.96948Z" fill="#4165FF"/>
<path d="M5.76753 7.36182L3.52168 5.11597C3.30905 4.90335 3.18945 4.62428 3.18945 4.31863C3.18945 4.01298 3.30905 3.73391 3.52168 3.52129C3.96022 3.08275 4.67783 3.08275 5.11636 3.52129L7.36221 5.76713L7.18945 5.90002C6.71105 6.27212 6.2858 6.71066 5.90042 7.18906L5.76753 7.36182ZM4.31902 3.58773C4.13297 3.58773 3.94693 3.65418 3.80075 3.80036C3.65457 3.94654 3.58812 4.11929 3.58812 4.31863C3.58812 4.51796 3.66786 4.69072 3.80075 4.8369L5.74095 6.7771C6.05989 6.40501 6.4054 6.05949 6.77749 5.74056L4.83729 3.80036C4.69111 3.65418 4.50507 3.58773 4.31902 3.58773Z" fill="#4165FF"/>
<path d="M18.259 7.05684L20.3454 4.97046C20.7042 4.61166 20.7042 4.01365 20.3454 3.65485C19.9865 3.29604 19.3885 3.29604 19.0297 3.65485C18.6709 4.01365 19.0297 3.65485 19.0297 3.65485L16.9434 5.74122C17.4351 6.12661 17.8736 6.56514 18.259 7.05684Z" fill="#4165FF"/>
<path d="M18.2458 7.36221L18.1129 7.18945C17.7408 6.71105 17.3023 6.2858 16.8239 5.90042L16.6511 5.76753L18.897 3.52168C19.1096 3.30905 19.402 3.18945 19.6943 3.18945C19.9867 3.18945 20.279 3.30905 20.4917 3.52168C20.9302 3.96022 20.9302 4.67783 20.4917 5.11636L18.2458 7.36221ZM17.2491 5.72766C17.6212 6.0466 17.9667 6.39211 18.2857 6.7642L20.2259 4.824C20.5049 4.54493 20.5049 4.07982 20.2259 3.78746C19.9468 3.50839 19.4817 3.50839 19.1893 3.78746L17.2491 5.72766Z" fill="#4165FF"/>
<path d="M11.0696 2.05968V4.07962C11.3752 4.03975 11.6809 4.02646 11.9998 4.02646C12.3187 4.02646 12.6244 4.05304 12.93 4.07962V1.12945C12.93 0.611179 12.5181 0.199219 11.9998 0.199219C11.4815 0.199219 11.0696 0.611179 11.0696 1.12945C11.0696 1.12945 11.0696 1.64772 11.0696 1.12945V2.05968Z" fill="#4165FF"/>
<path d="M13.1295 4.30565L12.9036 4.27907C12.5979 4.2392 12.2923 4.22591 11.9999 4.22591C11.7076 4.22591 11.4019 4.2392 11.0963 4.27907L10.8704 4.30565V1.12957C10.8704 0.504983 11.3753 0 11.9999 0C12.6245 0 13.1295 0.504983 13.1295 1.12957V4.30565ZM11.9999 3.82724C12.2391 3.82724 12.4783 3.82724 12.7308 3.86711V1.12957C12.7308 0.730897 12.3986 0.398671 11.9999 0.398671C11.6013 0.398671 11.269 0.730897 11.269 1.12957V3.86711C11.5215 3.84053 11.7607 3.82724 11.9999 3.82724Z" fill="#4165FF"/>
<path d="M11.9998 19.9731C11.6809 19.9731 11.3752 19.9465 11.0696 19.9199V21.807V21.9399V22.8701C11.0696 23.3884 11.4815 23.8003 11.9998 23.8003C12.5181 23.8003 12.93 23.3884 12.93 22.8701V19.9199C12.6244 19.9598 12.3187 19.9731 11.9998 19.9731Z" fill="#4165FF"/>
<path d="M11.9999 24C11.3753 24 10.8704 23.495 10.8704 22.8704V19.6943L11.0963 19.7209C11.4019 19.7608 11.7076 19.7741 11.9999 19.7741C12.2923 19.7741 12.5979 19.7608 12.9036 19.7209L13.1295 19.6943V22.8704C13.1295 23.495 12.6245 24 11.9999 24ZM11.269 20.1329V22.8704C11.269 23.2691 11.6013 23.6013 11.9999 23.6013C12.3986 23.6013 12.7308 23.2691 12.7308 22.8704V20.1329C12.2391 20.1727 11.774 20.1727 11.269 20.1329Z" fill="#4165FF"/>
<path d="M22.8703 11.0693H19.9202C19.96 11.375 19.9733 11.6806 19.9733 11.9996C19.9733 12.3185 19.9467 12.6242 19.9202 12.9298H22.8703C23.3886 12.9298 23.8006 12.5178 23.8006 11.9996C23.8006 11.4813 23.3886 11.0693 22.8703 11.0693Z" fill="#4165FF"/>
<path d="M19.6943 13.1293L19.7209 12.9033C19.7608 12.5844 19.7741 12.292 19.7741 11.9997C19.7741 11.7073 19.7608 11.4017 19.7209 11.096L19.6943 10.8701H22.8704C23.495 10.8701 24 11.3751 24 11.9997C24 12.6243 23.495 13.1293 22.8704 13.1293H19.6943ZM20.1329 12.7306H22.8704C23.2691 12.7306 23.6013 12.3984 23.6013 11.9997C23.6013 11.601 23.2824 11.2688 22.8837 11.2688H20.1462C20.1727 11.5213 20.186 11.7605 20.186 11.9997C20.186 12.2389 20.186 12.4781 20.1462 12.7306H20.1329Z" fill="#4165FF"/>
<path d="M20.3454 19.0297L18.259 16.9434C17.8736 17.4351 17.4351 17.8736 16.9434 18.259L19.0297 20.3454C19.3885 20.7042 19.9865 20.7042 20.3454 20.3454C20.7042 19.9865 20.7042 19.3885 20.3454 19.0297Z" fill="#4165FF"/>
<path d="M19.6943 20.8241C19.4551 20.8241 19.2026 20.7444 19.0033 20.5849L16.6511 18.2461L16.8239 18.1132C17.3023 17.7411 17.7275 17.3025 18.1129 16.8241L18.2458 16.6514L20.4917 18.8972C20.7043 19.1098 20.8239 19.3889 20.8239 19.6946C20.8239 20.0002 20.7043 20.2793 20.4917 20.4919C20.279 20.7045 19.9867 20.8241 19.6943 20.8241ZM19.0299 20.0666L19.176 20.2128C19.3089 20.3457 19.495 20.4255 19.6943 20.4255C19.8936 20.4255 20.0664 20.3457 20.2126 20.2128C20.4917 19.9338 20.4917 19.4686 20.2126 19.1763L20.3588 19.0301L20.2126 19.1763L18.2857 17.2494C17.9667 17.6215 17.6212 17.967 17.2491 18.2859L19.0431 20.0799L19.0299 20.0666Z" fill="#4165FF"/>
<path d="M5.74098 16.9434L3.6546 19.0297C3.2958 19.3885 3.2958 19.9865 3.6546 20.3454C4.01341 20.7042 4.61141 20.7042 4.97022 20.3454L7.05659 18.259C6.5649 17.8736 6.12636 17.4351 5.74098 16.9434Z" fill="#4165FF"/>
<path d="M4.31902 20.8241C4.02666 20.8241 3.7343 20.7178 3.52168 20.4919C3.30905 20.266 3.18945 20.0002 3.18945 19.6946C3.18945 19.3889 3.30905 19.1098 3.52168 18.8972L5.76753 16.6514L5.90042 16.8241C6.27251 17.3025 6.71105 17.7278 7.18945 18.1132L7.36221 18.2461L5.11636 20.4919C4.89045 20.7178 4.61138 20.8241 4.31902 20.8241ZM5.74095 17.2494L3.80075 19.1896C3.52168 19.4686 3.52168 19.9338 3.80075 20.2261C4.07982 20.5052 4.54494 20.5052 4.83729 20.2261L6.77749 18.2859C6.4054 17.967 6.05989 17.6215 5.74095 17.2494Z" fill="#4165FF"/>
<path d="M12 6.15261C15.2293 6.15261 17.8472 8.77055 17.8472 11.9998C17.8472 15.229 15.2293 17.847 12 17.847C8.7708 17.847 6.15286 15.229 6.15286 11.9998C6.15286 8.77055 8.7708 6.15261 12 6.15261ZM12 4.02637C7.60136 4.02637 4.02661 7.60112 4.02661 11.9998C4.02661 16.3985 7.60136 19.9732 12 19.9732C16.3987 19.9732 19.9735 16.3985 19.9735 11.9998C19.9735 7.60112 16.3987 4.02637 12 4.02637Z" fill="#596168"/>
</g>
<defs>
<clipPath id="clip0_1325_8326">
<rect width="24" height="24" fill="white"/>
</clipPath>
</defs>
</svg>
