<svg width="28" height="28" viewBox="0 0 28 28" fill="none" xmlns="http://www.w3.org/2000/svg">
<path d="M14 6.74773C18.0045 6.74773 21.2522 9.99548 21.2522 14C21.2522 18.0045 18.0045 21.2522 14 21.2522C9.99548 21.2522 6.74773 18.0045 6.74773 14C6.74773 9.99548 9.99548 6.74773 14 6.74773ZM14 4.54053C8.78152 4.54053 4.54053 8.78152 4.54053 14C4.54053 19.2185 8.78152 23.4594 14 23.4594C19.2185 23.4594 23.4594 19.2185 23.4594 14C23.4594 8.78152 19.2185 4.54053 14 4.54053Z" fill="#596168"/>
<path d="M4.54054 14.0001C4.54054 13.6217 4.57207 13.2591 4.6036 12.8965H1.1036C0.488739 12.8965 0 13.3852 0 14.0001C0 14.615 0.488739 15.1037 1.1036 15.1037H4.6036C4.55631 14.7411 4.54054 14.3785 4.54054 14.0001Z" fill="#4165FF"/>
<path d="M4.09904 5.65985L6.57427 8.13508C7.03147 7.55174 7.55174 7.03147 8.13508 6.57427L5.65985 4.09904C5.23418 3.67337 4.52472 3.67337 4.09904 4.09904C3.67337 4.52472 3.67337 5.23418 4.09904 5.65985Z" fill="#4165FF"/>
<path d="M21.4256 8.13508L23.9008 5.65985C24.3265 5.23418 24.3265 4.52472 23.9008 4.09904C23.4751 3.67337 22.7656 3.67337 22.34 4.09904C21.9143 4.52472 22.34 4.09904 22.34 4.09904L19.8647 6.57427C20.4481 7.03147 20.9683 7.55174 21.4256 8.13508Z" fill="#4165FF"/>
<path d="M12.8965 2.20721V4.6036C13.2591 4.55631 13.6217 4.54054 14.0001 4.54054C14.3785 4.54054 14.7411 4.57207 15.1037 4.6036V1.1036C15.1037 0.488739 14.615 0 14.0001 0C13.3852 0 12.8965 0.488739 12.8965 1.1036C12.8965 1.71847 12.8965 1.1036 12.8965 1.1036V2.20721Z" fill="#4165FF"/>
<path d="M14.0001 23.4595C13.6217 23.4595 13.2591 23.428 12.8965 23.3965V25.6352V25.7929V26.8965C12.8965 27.5114 13.3852 28.0001 14.0001 28.0001C14.615 28.0001 15.1037 27.5114 15.1037 26.8965V23.3965C14.7411 23.4438 14.3785 23.4595 14.0001 23.4595Z" fill="#4165FF"/>
<path d="M26.8965 12.8965H23.3965C23.4438 13.2591 23.4595 13.6217 23.4595 14.0001C23.4595 14.3785 23.428 14.7411 23.3965 15.1037H26.8965C27.5114 15.1037 28.0001 14.615 28.0001 14.0001C28.0001 13.3852 27.5114 12.8965 26.8965 12.8965Z" fill="#4165FF"/>
<path d="M23.9008 22.34L21.4256 19.8647C20.9683 20.4481 20.4481 20.9683 19.8647 21.4256L22.34 23.9008C22.7656 24.3265 23.4751 24.3265 23.9008 23.9008C24.3265 23.4751 24.3265 22.7656 23.9008 22.34Z" fill="#4165FF"/>
<path d="M6.57427 19.8647L4.09904 22.34C3.67337 22.7656 3.67337 23.4751 4.09904 23.9008C4.52472 24.3265 5.23418 24.3265 5.65985 23.9008L8.13508 21.4256C7.55174 20.9683 7.03147 20.4481 6.57427 19.8647Z" fill="#4165FF"/>
</svg>
