<svg width="25" height="24" viewBox="0 0 25 24" fill="none" xmlns="http://www.w3.org/2000/svg">
<g clip-path="url(#clip0_1325_5664)">
<path d="M4.99765 11.9996C4.99765 11.6806 5.02423 11.375 5.05081 11.0693H2.10064C1.58237 11.0693 1.17041 11.4813 1.17041 11.9996C1.17041 12.5178 1.58237 12.9298 2.10064 12.9298H5.05081C5.01094 12.6242 4.99765 12.3185 4.99765 11.9996Z" fill="#DADCE0"/>
<path d="M5.27684 13.1293H2.10076C1.47617 13.1293 0.971191 12.6243 0.971191 11.9997C0.971191 11.3751 1.47617 10.8701 2.10076 10.8701H5.27684L5.25026 11.096C5.21039 11.4017 5.1971 11.7073 5.1971 11.9997C5.1971 12.292 5.21039 12.5977 5.25026 12.9033L5.27684 13.1293ZM2.10076 11.2688C1.70209 11.2688 1.36986 11.601 1.36986 11.9997C1.36986 12.3984 1.70209 12.7306 2.10076 12.7306H4.8383C4.81172 12.4781 4.79843 12.2389 4.79843 11.9997C4.79843 11.7605 4.79843 11.5213 4.8383 11.2688H2.10076Z" fill="#DADCE0"/>
<path d="M4.62579 4.96948L6.71217 7.05586C7.09755 6.56417 7.53609 6.12563 8.02779 5.74025L5.94141 3.65387C5.5826 3.29506 4.9846 3.29506 4.62579 3.65387C4.26699 4.01267 4.26699 4.61068 4.62579 4.96948Z" fill="#DADCE0"/>
<path d="M6.73872 7.36182L4.49287 5.11597C4.28025 4.90335 4.16064 4.62428 4.16064 4.31863C4.16064 4.01298 4.28025 3.73391 4.49287 3.52129C4.93141 3.08275 5.64902 3.08275 6.08755 3.52129L8.3334 5.76713L8.16064 5.90002C7.68224 6.27212 7.25699 6.71066 6.87161 7.18906L6.73872 7.36182ZM5.29021 3.58773C5.10417 3.58773 4.91812 3.65418 4.77194 3.80036C4.62576 3.94654 4.55932 4.11929 4.55932 4.31863C4.55932 4.51796 4.63905 4.69072 4.77194 4.8369L6.71214 6.7771C7.03108 6.40501 7.37659 6.05949 7.74868 5.74056L5.80849 3.80036C5.66231 3.65418 5.47626 3.58773 5.29021 3.58773Z" fill="#DADCE0"/>
<path d="M19.2302 7.05684L21.3165 4.97046C21.6753 4.61166 21.6753 4.01365 21.3165 3.65485C20.9577 3.29604 20.3597 3.29604 20.0009 3.65485C19.6421 4.01365 20.0009 3.65485 20.0009 3.65485L17.9146 5.74122C18.4062 6.12661 18.8448 6.56514 19.2302 7.05684Z" fill="#DADCE0"/>
<path d="M19.217 7.36221L19.0841 7.18945C18.712 6.71105 18.2735 6.2858 17.7951 5.90042L17.6223 5.76753L19.8682 3.52168C20.0808 3.30905 20.3731 3.18945 20.6655 3.18945C20.9579 3.18945 21.2502 3.30905 21.4628 3.52168C21.9014 3.96022 21.9014 4.67783 21.4628 5.11636L19.217 7.36221ZM18.2203 5.72766C18.5924 6.0466 18.9379 6.39211 19.2569 6.7642L21.1971 4.824C21.4761 4.54493 21.4761 4.07982 21.1971 3.78746C20.918 3.50839 20.4529 3.50839 20.1605 3.78746L18.2203 5.72766Z" fill="#DADCE0"/>
<path d="M12.0408 2.05968V4.07962C12.3464 4.03975 12.6521 4.02646 12.971 4.02646C13.2899 4.02646 13.5956 4.05304 13.9012 4.07962V1.12945C13.9012 0.611179 13.4893 0.199219 12.971 0.199219C12.4527 0.199219 12.0408 0.611179 12.0408 1.12945C12.0408 1.12945 12.0408 1.64772 12.0408 1.12945V2.05968Z" fill="#DADCE0"/>
<path d="M14.1007 4.30565L13.8748 4.27907C13.5691 4.2392 13.2635 4.22591 12.9711 4.22591C12.6788 4.22591 12.3731 4.2392 12.0675 4.27907L11.8416 4.30565V1.12957C11.8416 0.504983 12.3465 0 12.9711 0C13.5957 0 14.1007 0.504983 14.1007 1.12957V4.30565ZM12.9711 3.82724C13.2103 3.82724 13.4495 3.82724 13.702 3.86711V1.12957C13.702 0.730897 13.3698 0.398671 12.9711 0.398671C12.5724 0.398671 12.2402 0.730897 12.2402 1.12957V3.86711C12.4927 3.84053 12.7319 3.82724 12.9711 3.82724Z" fill="#DADCE0"/>
<path d="M12.971 19.9731C12.6521 19.9731 12.3464 19.9465 12.0408 19.9199V21.807V21.9399V22.8701C12.0408 23.3884 12.4527 23.8003 12.971 23.8003C13.4893 23.8003 13.9012 23.3884 13.9012 22.8701V19.9199C13.5956 19.9598 13.2899 19.9731 12.971 19.9731Z" fill="#DADCE0"/>
<path d="M12.9711 24C12.3465 24 11.8416 23.495 11.8416 22.8704V19.6943L12.0675 19.7209C12.3731 19.7608 12.6788 19.7741 12.9711 19.7741C13.2635 19.7741 13.5691 19.7608 13.8748 19.7209L14.1007 19.6943V22.8704C14.1007 23.495 13.5957 24 12.9711 24ZM12.2402 20.1329V22.8704C12.2402 23.2691 12.5724 23.6013 12.9711 23.6013C13.3698 23.6013 13.702 23.2691 13.702 22.8704V20.1329C13.2103 20.1727 12.7452 20.1727 12.2402 20.1329Z" fill="#DADCE0"/>
<path d="M23.8415 11.0693H20.8914C20.9312 11.375 20.9445 11.6806 20.9445 11.9996C20.9445 12.3185 20.9179 12.6242 20.8914 12.9298H23.8415C24.3598 12.9298 24.7718 12.5178 24.7718 11.9996C24.7718 11.4813 24.3598 11.0693 23.8415 11.0693Z" fill="#DADCE0"/>
<path d="M20.6655 13.1293L20.6921 12.9033C20.732 12.5844 20.7453 12.292 20.7453 11.9997C20.7453 11.7073 20.732 11.4017 20.6921 11.096L20.6655 10.8701H23.8416C24.4662 10.8701 24.9712 11.3751 24.9712 11.9997C24.9712 12.6243 24.4662 13.1293 23.8416 13.1293H20.6655ZM21.1041 12.7306H23.8416C24.2403 12.7306 24.5725 12.3984 24.5725 11.9997C24.5725 11.601 24.2536 11.2688 23.8549 11.2688H21.1174C21.1439 11.5213 21.1572 11.7605 21.1572 11.9997C21.1572 12.2389 21.1572 12.4781 21.1174 12.7306H21.1041Z" fill="#DADCE0"/>
<path d="M21.3165 19.0297L19.2302 16.9434C18.8448 17.4351 18.4062 17.8736 17.9146 18.259L20.0009 20.3454C20.3597 20.7042 20.9577 20.7042 21.3165 20.3454C21.6753 19.9865 21.6753 19.3885 21.3165 19.0297Z" fill="#DADCE0"/>
<path d="M20.6655 20.8241C20.4263 20.8241 20.1738 20.7444 19.9745 20.5849L17.6223 18.2461L17.7951 18.1132C18.2735 17.7411 18.6987 17.3025 19.0841 16.8241L19.217 16.6514L21.4628 18.8972C21.6755 19.1098 21.7951 19.3889 21.7951 19.6946C21.7951 20.0002 21.6755 20.2793 21.4628 20.4919C21.2502 20.7045 20.9579 20.8241 20.6655 20.8241ZM20.0011 20.0666L20.1472 20.2128C20.2801 20.3457 20.4662 20.4255 20.6655 20.4255C20.8648 20.4255 21.0376 20.3457 21.1838 20.2128C21.4628 19.9338 21.4628 19.4686 21.1838 19.1763L21.33 19.0301L21.1838 19.1763L19.2569 17.2494C18.9379 17.6215 18.5924 17.967 18.2203 18.2859L20.0143 20.0799L20.0011 20.0666Z" fill="#DADCE0"/>
<path d="M6.71217 16.9434L4.62579 19.0297C4.26699 19.3885 4.26699 19.9865 4.62579 20.3454C4.9846 20.7042 5.5826 20.7042 5.94141 20.3454L8.02779 18.259C7.53609 17.8736 7.09755 17.4351 6.71217 16.9434Z" fill="#DADCE0"/>
<path d="M5.29021 20.8241C4.99785 20.8241 4.7055 20.7178 4.49287 20.4919C4.28025 20.266 4.16064 20.0002 4.16064 19.6946C4.16064 19.3889 4.28025 19.1098 4.49287 18.8972L6.73872 16.6514L6.87161 16.8241C7.2437 17.3025 7.68224 17.7278 8.16064 18.1132L8.3334 18.2461L6.08755 20.4919C5.86164 20.7178 5.58257 20.8241 5.29021 20.8241ZM6.71214 17.2494L4.77194 19.1896C4.49287 19.4686 4.49287 19.9338 4.77194 20.2261C5.05101 20.5052 5.51613 20.5052 5.80849 20.2261L7.74868 18.2859C7.37659 17.967 7.03108 17.6215 6.71214 17.2494Z" fill="#DADCE0"/>
<path d="M12.9712 6.15261C16.2005 6.15261 18.8184 8.77055 18.8184 11.9998C18.8184 15.229 16.2005 17.847 12.9712 17.847C9.74199 17.847 7.12405 15.229 7.12405 11.9998C7.12405 8.77055 9.74199 6.15261 12.9712 6.15261ZM12.9712 4.02637C8.57255 4.02637 4.9978 7.60112 4.9978 11.9998C4.9978 16.3985 8.57255 19.9732 12.9712 19.9732C17.3699 19.9732 20.9446 16.3985 20.9446 11.9998C20.9446 7.60112 17.3699 4.02637 12.9712 4.02637Z" fill="#DADCE0"/>
</g>
<defs>
<clipPath id="clip0_1325_5664">
<rect width="24" height="24" fill="white" transform="translate(0.971191)"/>
</clipPath>
</defs>
</svg>
